SplineFontDB: 3.0
FontName: Topmarks-Bold
FullName: Topmarks Bold
FamilyName: Topmarks
Weight: Medium
Copyright: Copyright (c) 2012-13 by vernon adams. All rights reserved.
ItalicAngle: 0
UnderlinePosition: 0
UnderlineWidth: 0
Ascent: 1638
Descent: 410
UFOAscent: 1638
UFODescent: -410
LayerCount: 2
Layer: 0 0 "Back"  1
Layer: 1 0 "Fore"  0
OS2Version: 0
OS2_WeightWidthSlopeOnly: 0
OS2_UseTypoMetrics: 0
CreationTime: 1359431074
ModificationTime: 1359431376
PfmFamily: 0
TTFWeight: 700
TTFWidth: 5
LineGap: 0
VLineGap: 0
OS2TypoAscent: 1638
OS2TypoAOffset: 0
OS2TypoDescent: -410
OS2TypoDOffset: 0
OS2TypoLinegap: 0
OS2WinAscent: 1638
OS2WinAOffset: 0
OS2WinDescent: 410
OS2WinDOffset: 0
HheadAscent: 2471
HheadAOffset: 0
HheadDescent: -1101
HheadDOffset: 0
OS2Vendor: 'newt'
Lookup: 258 0 0 "'kern' Horizontal Kerning in Latin lookup 0"  {"'kern' Horizontal Kerning in Latin lookup 0 subtable"  } ['kern' ('latn' <'dflt' > ) ]
Lookup: 258 0 0 "kernHorizontalKerninginLatinloo"  {"kernHorizontalKerninginLatinloo subtable"  } ['kern' ('latn' <'dflt' > ) ]
Lookup: 258 0 0 "pos_pair_kernlatn_0"  {"pos_pair_kernlatn_0 subtable"  } ['kern' ('latn' <'dflt' > ) ]
DEI: 91125
LangName: 1033 "" "" "" "" "" "" "" "" "vernon adams" "vernon adams" "Copyright (c) 2011 by vernon adams. All rights reserved." 
PickledData: "(dp1
S'com.typemytype.robofont.segmentType'
p2
S'curve'
p3
sS'com.typemytype.robofont.sort'
p4
((dp5
S'allowPseudoUnicode'
p6
I01
sS'type'
p7
S'alphabetical'
p8
sS'ascending'
p9
I01
s(dp10
g6
I01
sg7
S'category'
p11
sg9
I01
s(dp12
g6
I01
sg7
S'unicode'
p13
sg9
I01
s(dp14
g6
I01
sg7
S'script'
p15
sg9
I01
s(dp16
g6
I01
sg7
S'suffix'
p17
sg9
I01
s(dp18
g6
I01
sg7
S'decompositionBase'
p19
sg9
I01
stp20
sS'public.glyphOrder'
p21
(S'A'
S'Agrave'
S'Aacute'
S'Acircumflex'
S'Atilde'
S'Adieresis'
S'Aring'
S'Amacron'
S'Abreve'
S'Aogonek'
S'uni0200'
S'uni0202'
S'B'
S'C'
S'Ccedilla'
S'Cacute'
S'Ccaron'
S'D'
S'E'
S'Egrave'
S'Eacute'
S'Ecircumflex'
S'Edieresis'
S'Emacron'
S'Eogonek'

StartChar: A
Encoding: 65 65 1
Width: 1506
VWidth: 0
GlyphClass: 2
Flags: HW
PickledData: "(dp1
S'com.typemytype.robofont.layerData'
p2
(dp3
s."
LayerCount: 2
UndoRedoHistory
Layer: 1
Undoes
EndUndoes
Redoes
EndRedoes
EndUndoRedoHistory
Fore
SplineSet
67 0 m 1
 341 0 l 1
 466 335 l 1
 1034 335 l 1
 1155 0 l 1
 1440 0 l 1
 878 1448 l 1
 635 1448 l 1
 67 0 l 1
540 533 m 1
 621 750 l 1
 750 1121 l 1
 884 750 l 1
 962 533 l 1
 540 533 l 1
EndSplineSet
EndChar

StartChar: AE
Encoding: 198 198 2
Width: 3571
VWidth: 0
GlyphClass: 2
Flags: W
LayerCount: 2
Fore
SplineSet
9 0 m 1
 239 0 l 1
 504 467 l 1
 1263 467 l 1
 1299 0 l 1
 2235 0 l 1
 2235 174 l 1
 1478 174 l 1
 1430 789 l 1
 2159 789 l 1
 2159 962 l 1
 1408 962 l 1
 1364 1536 l 1
 2208 1536 l 1
 2208 1710 l 1
 985 1710 l 1
 9 0 l 1
597 641 m 1
 1111 1536 l 1
 1170 1536 l 1
 1241 641 l 1
 597 641 l 1
EndSplineSet
EndChar

StartChar: B
Encoding: 66 66 12
Width: 1331
VWidth: 0
GlyphClass: 2
Flags: HW
PickledData: "(dp1
S'com.typemytype.robofont.layerData'
p2
(dp3
s."
LayerCount: 2
UndoRedoHistory
Layer: 1
Undoes
EndUndoes
Redoes
EndRedoes
EndUndoRedoHistory
Fore
SplineSet
99 0 m 1
 655 0 l 2
 1069 0 1246 127 1246 420 c 0
 1246 633 1155 740 943 775 c 1
 1112 823 1183 920 1183 1100 c 0
 1183 1345 1005 1448 589 1448 c 2
 99 1448 l 1
 99 0 l 1
358 201 m 1
 358 657 l 1
 633 657 l 2
 890 657 1000 590 1000 433 c 0
 1000 268 895 201 648 201 c 2
 358 201 l 1
358 841 m 1
 358 1248 l 1
 589 1248 l 2
 833 1248 937 1195 937 1062 c 0
 937 907 837 841 603 841 c 2
 358 841 l 1
EndSplineSet
EndChar

StartChar: C
Encoding: 67 67 13
Width: 1345
VWidth: 0
GlyphClass: 2
Flags: HW
PickledData: "(dp1
S'com.typemytype.robofont.layerData'
p2
(dp3
s."
LayerCount: 2
UndoRedoHistory
Layer: 1
Undoes
EndUndoes
Redoes
EndRedoes
EndUndoRedoHistory
Fore
SplineSet
822 -26 m 0
 997 -26 1190 33 1299 122 c 1
 1221 340 l 1
 1122 261 965 209 831 209 c 0
 527 209 324 414 324 719 c 0
 324 1032 528 1240 832 1240 c 0
 958 1240 1103 1189 1196 1114 c 1
 1284 1324 l 1
 1172 1414 988 1474 823 1474 c 0
 359 1474 52 1172 52 720 c 0
 52 274 359 -26 822 -26 c 0
EndSplineSet
EndChar

StartChar: D
Encoding: 68 68 17
Width: 1494
VWidth: 0
GlyphClass: 2
Flags: HW
PickledData: "(dp1
S'com.typemytype.robofont.layerData'
p2
(dp3
s."
LayerCount: 2
UndoRedoHistory
Layer: 1
Undoes
EndUndoes
Redoes
EndRedoes
EndUndoRedoHistory
Fore
SplineSet
368 211 m 1
 368 1238 l 1
 529 1238 l 2
 954 1238 1136 1088 1136 735 c 0
 1136 368 966 211 570 211 c 2
 368 211 l 1
102 0 m 1
 554 0 l 2
 1149 0 1404 221 1404 738 c 0
 1404 1236 1132 1448 496 1448 c 2
 102 1448 l 1
 102 0 l 1
EndSplineSet
EndChar

StartChar: Delta
Encoding: 916 916 18
Width: 2314
VWidth: 0
GlyphClass: 2
Flags: W
LayerCount: 2
Fore
SplineSet
71 0 m 1
 1507 0 l 1
 1507 94 l 1
 896 1678 l 1
 682 1678 l 1
 71 94 l 1
 71 0 l 1
340 190 m 1
 746 1305 l 1
 783 1430 l 1
 823 1305 l 1
 1237 190 l 1
 340 190 l 1
EndSplineSet
EndChar

StartChar: E
Encoding: 69 69 19
Width: 1149
VWidth: 0
GlyphClass: 2
Flags: HW
PickledData: "(dp1
S'com.typemytype.robofont.layerData'
p2
(dp3
s."
LayerCount: 2
UndoRedoHistory
Layer: 1
Undoes
EndUndoes
Redoes
EndRedoes
EndUndoRedoHistory
Fore
SplineSet
102 0 m 1
 1059 0 l 1
 1059 211 l 1
 361 211 l 1
 361 642 l 1
 971 642 l 1
 971 838 l 1
 361 838 l 1
 361 1238 l 1
 1009 1238 l 1
 1009 1448 l 1
 102 1448 l 1
 102 0 l 1
EndSplineSet
EndChar

StartChar: Euro
Encoding: 8364 8364 27
Width: 2095
VWidth: 0
GlyphClass: 2
Flags: W
LayerCount: 2
Fore
SplineSet
926 -37 m 0
 1089 -37 1212 5 1316 76 c 1
 1317 285 l 1
 1213 204 1101 134 945 134 c 0
 654 134 539 336 505 593 c 1
 1141 593 l 1
 1164 755 l 1
 488 755 l 1
 486 812 l 1
 484 834 483 860 484 882 c 1
 484 895 l 2
 484 899 486 905 487 908 c 1
 1179 908 l 1
 1203 1070 l 1
 508 1070 l 1
 557 1299 679 1518 955 1518 c 0
 1117 1518 1229 1435 1300 1328 c 1
 1342 1550 l 1
 1251 1636 1134 1688 964 1688 c 0
 871 1688 786 1673 712 1643 c 0
 486 1550 349 1342 300 1070 c 1
 158 1070 l 1
 132 908 l 1
 278 908 l 1
 277 881 275 858 275 832 c 0
 275 802 277 777 280 755 c 1
 159 755 l 1
 136 593 l 1
 294 593 l 1
 339 233 522 -37 926 -37 c 0
EndSplineSet
EndChar

StartChar: F
Encoding: 70 70 28
Width: 1084
VWidth: 0
GlyphClass: 2
Flags: HW
PickledData: "(dp1
S'com.typemytype.robofont.layerData'
p2
(dp3
s."
LayerCount: 2
UndoRedoHistory
Layer: 1
Undoes
EndUndoes
Redoes
EndRedoes
EndUndoRedoHistory
Fore
SplineSet
102 0 m 1
 361 0 l 1
 361 664 l 1
 957 664 l 1
 957 861 l 1
 361 861 l 1
 361 1238 l 1
 990 1238 l 1
 990 1448 l 1
 102 1448 l 1
 102 0 l 1
EndSplineSet
EndChar

StartChar: G
Encoding: 71 71 29
Width: 1510
VWidth: 0
GlyphClass: 2
Flags: HW
PickledData: "(dp1
S'com.typemytype.robofont.layerData'
p2
(dp3
s."
LayerCount: 2
UndoRedoHistory
Layer: 1
Undoes
EndUndoes
Redoes
EndRedoes
EndUndoRedoHistory
Fore
SplineSet
881 -26 m 0
 1068 -26 1279 12 1411 74 c 1
 1411 773 l 1
 850 773 l 1
 850 595 l 1
 1184 595 l 1
 1184 238 l 1
 1114 209 999 191 894 191 c 0
 577 191 365 391 365 701 c 0
 365 1033 590 1256 926 1256 c 0
 1045 1256 1199 1214 1315 1153 c 1
 1397 1338 l 1
 1264 1420 1064 1474 898 1474 c 0
 415 1474 92 1159 92 687 c 0
 92 256 407 -26 881 -26 c 0
EndSplineSet
EndChar

StartChar: H
Encoding: 72 72 31
Width: 1459
VWidth: 0
GlyphClass: 2
Flags: HW
LayerCount: 2
UndoRedoHistory
Layer: 1
Undoes
EndUndoes
Redoes
EndRedoes
EndUndoRedoHistory
Fore
SplineSet
105 0 m 1
 364 0 l 1
 364 635 l 1
 1105 635 l 1
 1105 0 l 1
 1354 0 l 1
 1354 1448 l 1
 1105 1448 l 1
 1105 850 l 1
 364 850 l 1
 364 1448 l 1
 105 1448 l 1
 105 0 l 1
EndSplineSet
EndChar

StartChar: I
Encoding: 73 73 32
Width: 469
VWidth: 0
GlyphClass: 2
Flags: HW
PickledData: "(dp1
S'com.typemytype.robofont.layerData'
p2
(dp3
s."
LayerCount: 2
UndoRedoHistory
Layer: 1
Undoes
EndUndoes
Redoes
EndRedoes
EndUndoRedoHistory
Fore
SplineSet
105 0 m 1
 364 0 l 1
 364 1448 l 1
 105 1448 l 1
 105 0 l 1
EndSplineSet
EndChar

StartChar: J
Encoding: 74 74 41
Width: 1135
VWidth: 0
GlyphClass: 2
Flags: HW
PickledData: "(dp1
S'com.typemytype.robofont.layerData'
p2
(dp3
s."
LayerCount: 2
UndoRedoHistory
Layer: 1
Undoes
EndUndoes
Redoes
EndRedoes
EndUndoRedoHistory
Fore
SplineSet
43 -114 m 1
 148 -178 264 -212 373 -212 c 0
 609 -212 813 -55 813 293 c 2
 813 1238 l 1
 1083 1238 l 1
 1083 1448 l 1
 174 1448 l 1
 174 1238 l 1
 554 1238 l 1
 554 292 l 2
 554 109 478 22 350 22 c 0
 285 22 205 45 115 90 c 1
 43 -114 l 1
EndSplineSet
EndChar

StartChar: J.alt
Encoding: 65537 -1 42
Width: 1653
VWidth: 0
GlyphClass: 2
Flags: W
LayerCount: 2
Fore
SplineSet
418 -40 m 0
 497 -40 567 -28 631 0 c 1
 829 83 928 287 928 573 c 2
 928 1696 l 1
 726 1696 l 1
 726 559 l 2
 726 334 649 133 425 133 c 0
 320 133 248 170 185 218 c 1
 125 82 l 1
 196 11 286 -40 418 -40 c 0
EndSplineSet
EndChar

StartChar: K
Encoding: 75 75 44
Width: 1287
VWidth: 0
GlyphClass: 2
Flags: HW
PickledData: "(dp1
S'com.typemytype.robofont.layerData'
p2
(dp3
s."
LayerCount: 2
UndoRedoHistory
Layer: 1
Undoes
EndUndoes
Redoes
EndRedoes
EndUndoRedoHistory
Fore
SplineSet
87 0 m 1
 346 0 l 1
 346 681 l 1
 911 0 l 1
 1242 0 l 1
 599 773 l 1
 1208 1448 l 1
 897 1448 l 1
 346 822 l 1
 346 1448 l 1
 87 1448 l 1
 87 0 l 1
EndSplineSet
EndChar

StartChar: L
Encoding: 76 76 45
Width: 1101
VWidth: 0
GlyphClass: 2
Flags: HW
PickledData: "(dp1
S'com.typemytype.robofont.layerData'
p2
(dp3
s."
LayerCount: 2
UndoRedoHistory
Layer: 1
Undoes
EndUndoes
Redoes
EndRedoes
EndUndoRedoHistory
Fore
SplineSet
103 0 m 1
 1007 0 l 1
 1007 211 l 1
 362 211 l 1
 362 1448 l 1
 103 1448 l 1
 103 0 l 1
EndSplineSet
EndChar

StartChar: Lslash
Encoding: 321 321 47
Width: 1972
VWidth: 0
GlyphClass: 2
Flags: W
LayerCount: 2
Fore
SplineSet
246 0 m 1
 1269 0 l 1
 1269 174 l 1
 448 174 l 1
 448 836 l 1
 783 1045 l 1
 783 1206 l 1
 448 997 l 1
 448 1710 l 1
 246 1710 l 1
 246 871 l 1
 27 735 l 1
 27 574 l 1
 246 710 l 1
 246 0 l 1
EndSplineSet
EndChar

StartChar: M
Encoding: 77 77 48
Width: 1833
VWidth: 0
GlyphClass: 2
Flags: HW
PickledData: "(dp1
S'com.typemytype.robofont.layerData'
p2
(dp3
s."
LayerCount: 2
UndoRedoHistory
Layer: 1
Undoes
EndUndoes
Redoes
EndRedoes
EndUndoRedoHistory
Fore
SplineSet
105 0 m 1
 365 0 l 1
 365 1094 l 1
 471 875 l 1
 857 229 l 1
 982 229 l 1
 1371 863 l 1
 1478 1077 l 1
 1478 0 l 1
 1728 0 l 1
 1728 1448 l 1
 1432 1448 l 1
 1006 735 l 1
 922 569 l 1
 836 733 l 1
 413 1448 l 1
 105 1448 l 1
 105 0 l 1
EndSplineSet
EndChar

StartChar: N
Encoding: 78 78 49
Width: 1526
VWidth: 0
GlyphClass: 2
Flags: HW
PickledData: "(dp1
S'com.typemytype.robofont.layerData'
p2
(dp3
s."
LayerCount: 2
UndoRedoHistory
Layer: 1
Undoes
EndUndoes
Redoes
EndRedoes
EndUndoRedoHistory
Fore
SplineSet
105 0 m 1
 336 0 l 1
 336 1111 l 1
 457 949 l 1
 1153 0 l 1
 1421 0 l 1
 1421 1448 l 1
 1190 1448 l 1
 1190 313 l 1
 1063 500 l 1
 370 1448 l 1
 105 1448 l 1
 105 0 l 1
EndSplineSet
EndChar

StartChar: O
Encoding: 79 79 52
Width: 1648
VWidth: 0
GlyphClass: 2
Flags: HW
PickledData: "(dp1
S'com.typemytype.robofont.guides'
p2
(tsS'com.typemytype.robofont.layerData'
p3
(dp4
s."
LayerCount: 2
UndoRedoHistory
Layer: 1
Undoes
EndUndoes
Redoes
EndRedoes
EndUndoRedoHistory
Fore
SplineSet
823 192 m 0
 548 192 365 408 365 724 c 0
 365 1046 548 1256 823 1256 c 0
 1098 1256 1282 1046 1282 724 c 0
 1282 408 1098 192 823 192 c 0
823 -26 m 0
 1262 -26 1555 276 1555 726 c 0
 1555 1178 1262 1474 823 1474 c 0
 384 1474 92 1178 92 726 c 0
 92 276 384 -26 823 -26 c 0
EndSplineSet
EndChar

StartChar: OE
Encoding: 338 338 53
Width: 3697
VWidth: 0
GlyphClass: 2
Flags: W
LayerCount: 2
Fore
SplineSet
1041 -40 m 0
 1206 -40 1323 24 1418 110 c 1
 1418 -14 l 1
 2396 -14 l 1
 2396 160 l 1
 1620 160 l 1
 1620 776 l 1
 2317 776 l 1
 2317 949 l 1
 1620 949 l 1
 1620 1522 l 1
 2362 1522 l 1
 2362 1696 l 1
 1418 1696 l 1
 1418 1608 l 1
 1322 1676 1203 1728 1049 1728 c 0
 916 1728 796 1706 691 1661 c 0
 395 1536 200 1258 200 843 c 0
 200 707 219 586 258 477 c 0
 367 167 626 -40 1041 -40 c 0
1038 133 m 0
 936 133 845 152 768 188 c 0
 547 291 416 518 416 838 c 0
 416 1044 480 1218 576 1338 c 0
 675 1461 825 1554 1041 1554 c 0
 1208 1554 1325 1499 1418 1418 c 1
 1418 298 l 1
 1329 205 1209 133 1038 133 c 0
EndSplineSet
EndChar

StartChar: Oslash
Encoding: 216 216 58
Width: 2929
VWidth: 0
GlyphClass: 2
Flags: W
LayerCount: 2
Fore
SplineSet
680 -291 m 1
 767 -86 l 1
 854 -111 948 -123 1047 -123 c 0
 1599 -123 1883 300 1883 760 c 0
 1883 1166 1716 1426 1463 1553 c 1
 1551 1760 l 1
 1404 1811 l 1
 1318 1609 l 1
 1233 1633 1142 1644 1047 1644 c 0
 491 1644 205 1220 205 760 c 0
 205 356 373 96 626 -31 c 1
 538 -239 l 1
 680 -291 l 1
699 141 m 1
 511 263 421 492 421 759 c 0
 421 1227 721 1470 1047 1470 c 0
 1121 1470 1188 1460 1248 1442 c 1
 699 141 l 1
1047 47 m 0
 969 47 899 57 836 77 c 1
 1388 1377 l 1
 1573 1255 1662 1026 1662 759 c 0
 1662 290 1366 47 1047 47 c 0
EndSplineSet
EndChar

StartChar: P
Encoding: 80 80 60
Width: 1287
VWidth: 0
GlyphClass: 2
Flags: HW
PickledData: "(dp1
S'com.typemytype.robofont.layerData'
p2
(dp3
s."
LayerCount: 2
UndoRedoHistory
Layer: 1
Undoes
EndUndoes
Redoes
EndRedoes
EndUndoRedoHistory
Fore
SplineSet
102 0 m 1
 368 0 l 1
 368 534 l 1
 582 534 l 2
 1012 534 1197 675 1197 1003 c 0
 1197 1316 1006 1448 557 1448 c 2
 102 1448 l 1
 102 0 l 1
368 737 m 1
 368 1251 l 1
 581 1251 l 2
 824 1251 929 1178 929 1001 c 0
 929 815 831 737 601 737 c 2
 368 737 l 1
EndSplineSet
EndChar

StartChar: Q
Encoding: 81 81 61
Width: 1649
VWidth: 0
GlyphClass: 2
Flags: HW
PickledData: "(dp1
S'com.typemytype.robofont.layerData'
p2
(dp3
s."
LayerCount: 2
UndoRedoHistory
Layer: 1
Undoes
EndUndoes
Redoes
EndRedoes
EndUndoRedoHistory
Fore
SplineSet
1207 -425 m 1
 1389 -268 l 1
 1292 -177 1204 -74 1141 55 c 1
 907 -18 l 1
 983 -180 1092 -309 1207 -425 c 1
EndSplineSet
Refer: 52 79 N 1 0 0 1 -55 0 2
EndChar

StartChar: R
Encoding: 82 82 62
Width: 1274
VWidth: 0
GlyphClass: 2
Flags: HW
PickledData: "(dp1
S'com.typemytype.robofont.layerData'
p2
(dp3
s."
LayerCount: 2
UndoRedoHistory
Layer: 1
Undoes
EndUndoes
Redoes
EndRedoes
EndUndoRedoHistory
Fore
SplineSet
91 0 m 1
 350 0 l 1
 350 638 l 1
 548 638 l 2
 671 638 746 571 797 417 c 1
 939 0 l 1
 1216 0 l 1
 1073 408 l 2
 1013 582 937 672 819 711 c 1
 1049 771 1148 878 1148 1069 c 0
 1148 1335 972 1448 562 1448 c 2
 91 1448 l 1
 91 0 l 1
350 814 m 1
 350 1251 l 1
 585 1251 l 2
 803 1251 897 1214 897 1054 c 0
 897 887 800 814 575 814 c 2
 350 814 l 1
EndSplineSet
EndChar

StartChar: S
Encoding: 83 83 66
Width: 1141
VWidth: 0
GlyphClass: 2
Flags: HW
PickledData: "(dp1
S'com.typemytype.robofont.layerData'
p2
(dp3
s."
LayerCount: 2
UndoRedoHistory
Layer: 1
Undoes
EndUndoes
Redoes
EndRedoes
EndUndoRedoHistory
Fore
SplineSet
601 -26 m 0
 937 -26 1087 164 1087 391 c 0
 1087 594 1025 731 623 839 c 0
 345 914 294 981 294 1070 c 0
 294 1184 374 1270 586 1270 c 0
 706 1270 846 1238 972 1171 c 1
 1037 1350 l 1
 905 1431 733 1474 571 1474 c 0
 193 1474 56 1270 56 1053 c 0
 56 880 135 753 470 657 c 1
 828 552 857 496 857 395 c 0
 857 259 747 186 582 186 c 0
 450 186 279 233 103 331 c 1
 64 121 l 1
 203 33 416 -26 601 -26 c 0
EndSplineSet
EndChar

StartChar: T
Encoding: 84 84 70
Width: 1311
VWidth: 0
GlyphClass: 2
Flags: HW
PickledData: "(dp1
S'com.typemytype.robofont.layerData'
p2
(dp3
s."
LayerCount: 2
UndoRedoHistory
Layer: 1
Undoes
EndUndoes
Redoes
EndRedoes
EndUndoRedoHistory
Fore
SplineSet
526 0 m 1
 784 0 l 1
 784 1251 l 1
 1211 1251 l 1
 1211 1448 l 1
 100 1448 l 1
 100 1251 l 1
 526 1251 l 1
 526 0 l 1
EndSplineSet
EndChar

StartChar: Thorn
Encoding: 222 222 71
Width: 2243
VWidth: 0
GlyphClass: 2
Flags: W
LayerCount: 2
Fore
SplineSet
358 0 m 1
 560 0 l 1
 560 520 l 1
 820 520 l 2
 1016 520 1191 564 1315 641 c 1
 1435 718 1528 839 1528 1029 c 0
 1528 1446 1175 1540 758 1540 c 2
 560 1540 l 1
 560 1710 l 1
 358 1710 l 1
 358 0 l 1
560 695 m 1
 560 1367 l 1
 809 1367 l 2
 1091 1367 1312 1308 1312 1026 c 0
 1312 969 1301 918 1279 877 c 0
 1212 751 1060 695 866 695 c 2
 560 695 l 1
EndSplineSet
EndChar

StartChar: U
Encoding: 85 85 72
Width: 1462
VWidth: 0
GlyphClass: 2
Flags: HW
PickledData: "(dp1
S'com.typemytype.robofont.layerData'
p2
(dp3
s."
LayerCount: 2
UndoRedoHistory
Layer: 1
Undoes
EndUndoes
Redoes
EndRedoes
EndUndoRedoHistory
Fore
SplineSet
743 -26 m 0
 1113 -26 1358 205 1358 550 c 2
 1358 1448 l 1
 1100 1448 l 1
 1100 537 l 2
 1100 327 958 188 742 188 c 0
 514 188 362 330 362 544 c 2
 362 1448 l 1
 104 1448 l 1
 104 539 l 2
 104 200 359 -26 743 -26 c 0
EndSplineSet
EndChar

StartChar: V
Encoding: 86 86 77
Width: 1530
VWidth: 0
GlyphClass: 2
Flags: HW
PickledData: "(dp1
S'com.typemytype.robofont.layerData'
p2
(dp3
s."
LayerCount: 2
UndoRedoHistory
Layer: 1
Undoes
EndUndoes
Redoes
EndRedoes
EndUndoRedoHistory
Fore
SplineSet
629 0 m 1
 907 0 l 1
 1459 1448 l 1
 1175 1448 l 1
 876 629 l 1
 769 323 l 1
 654 630 l 1
 346 1448 l 1
 71 1448 l 1
 629 0 l 1
EndSplineSet
EndChar

StartChar: W
Encoding: 87 87 78
Width: 2275
VWidth: 0
GlyphClass: 2
Flags: HW
PickledData: "(dp1
S'com.typemytype.robofont.layerData'
p2
(dp3
s."
LayerCount: 2
UndoRedoHistory
Layer: 1
Undoes
EndUndoes
Redoes
EndRedoes
EndUndoRedoHistory
Fore
SplineSet
1530 0 m 1
 1751 0 l 1
 2202 1448 l 1
 1953 1448 l 1
 1710 614 l 1
 1638 386 l 1
 1557 610 l 1
 1234 1448 l 1
 1055 1448 l 1
 730 614 l 1
 644 385 l 1
 577 614 l 1
 328 1448 l 1
 73 1448 l 1
 525 0 l 1
 746 0 l 1
 1139 1051 l 1
 1530 0 l 1
EndSplineSet
EndChar

StartChar: X
Encoding: 88 88 79
Width: 1503
VWidth: 0
GlyphClass: 2
Flags: HW
PickledData: "(dp1
S'com.typemytype.robofont.layerData'
p2
(dp3
s."
LayerCount: 2
UndoRedoHistory
Layer: 1
Undoes
EndUndoes
Redoes
EndRedoes
EndUndoRedoHistory
Fore
SplineSet
44 0 m 1
 318 0 l 1
 748 561 l 1
 1163 0 l 1
 1434 0 l 1
 911 717 l 1
 1451 1448 l 1
 1178 1448 l 1
 774 905 l 1
 377 1448 l 1
 93 1448 l 1
 611 748 l 1
 44 0 l 1
EndSplineSet
EndChar

StartChar: Y
Encoding: 89 89 80
Width: 1411
VWidth: 0
GlyphClass: 2
Flags: HW
PickledData: "(dp1
S'com.typemytype.robofont.layerData'
p2
(dp3
s."
LayerCount: 2
UndoRedoHistory
Layer: 1
Undoes
EndUndoes
Redoes
EndRedoes
EndUndoRedoHistory
Fore
SplineSet
562 0 m 1
 831 0 l 1
 831 582 l 1
 1342 1448 l 1
 1083 1448 l 1
 699 788 l 1
 340 1448 l 1
 70 1448 l 1
 562 580 l 1
 562 0 l 1
EndSplineSet
EndChar

StartChar: Z
Encoding: 90 90 83
Width: 1277
VWidth: 0
GlyphClass: 2
Flags: HW
PickledData: "(dp1
S'com.typemytype.robofont.layerData'
p2
(dp3
s."
LayerCount: 2
UndoRedoHistory
Layer: 1
Undoes
EndUndoes
Redoes
EndRedoes
EndUndoRedoHistory
Fore
SplineSet
92 0 m 1
 1174 0 l 1
 1174 211 l 1
 392 211 l 1
 1182 1268 l 1
 1182 1448 l 1
 123 1448 l 1
 123 1238 l 1
 885 1238 l 1
 92 198 l 1
 92 0 l 1
EndSplineSet
EndChar

StartChar: a
Encoding: 97 97 87
Width: 1243
VWidth: 0
GlyphClass: 2
Flags: HW
PickledData: "(dp1
S'com.typemytype.robofont.layerData'
p2
(dp3
s."
LayerCount: 2
UndoRedoHistory
Layer: 1
Undoes
EndUndoes
Redoes
EndRedoes
EndUndoRedoHistory
Fore
SplineSet
495 -22 m 0
 635 -22 777 55 831 160 c 1
 858 64 977 -4 1124 -4 c 1
 1203 198 l 1
 1109 198 1035 255 1035 333 c 2
 1035 906 l 1
 939 963 774 1016 636 1016 c 0
 295 1016 55 771 55 425 c 0
 55 164 232 -22 495 -22 c 0
514 174 m 0
 391 174 303 282 303 434 c 0
 303 659 436 820 623 820 c 0
 681 820 752 806 793 784 c 1
 793 419 l 2
 793 276 678 174 514 174 c 0
EndSplineSet
EndChar

StartChar: a.alt
Encoding: 65538 -1 88
Width: 2147
VWidth: 0
GlyphClass: 2
Flags: W
LayerCount: 2
Fore
SplineSet
701 -40 m 0
 844 -40 1029 1 1138 181 c 1
 1170 40 1308 -18 1410 -18 c 1
 1450 150 l 1
 1389 150 1303 185 1303 322 c 2
 1303 596 l 2
 1303 1077 1065 1221 772 1221 c 0
 385 1221 155 978 155 567 c 0
 155 212 381 -40 701 -40 c 0
723 124 m 0
 506 124 351 313 351 578 c 0
 351 881 510 1059 777 1059 c 0
 989 1059 1110 943 1110 602 c 0
 1110 306 1024 124 723 124 c 0
EndSplineSet
EndChar

StartChar: acute
Encoding: 180 180 92
Width: 1068
VWidth: 0
GlyphClass: 2
Flags: W
LayerCount: 2
Fore
SplineSet
308 2064 m 1
 531 2064 l 1
 893 2440 l 1
 574 2440 l 1
 308 2064 l 1
EndSplineSet
EndChar

StartChar: ae
Encoding: 230 230 94
Width: 3182
VWidth: 0
GlyphClass: 2
Flags: W
LayerCount: 2
Fore
SplineSet
565 -49 m 0
 801 -49 959 68 1050 215 c 1
 1127 67 1274 -46 1494 -46 c 0
 1745 -46 1905 60 2001 225 c 1
 1900 327 l 1
 1823 210 1688 116 1506 116 c 0
 1256 116 1152 280 1152 527 c 0
 1152 533 1153 542 1153 546 c 1
 2040 546 l 1
 2040 599 l 2
 2040 977 1871 1220 1493 1220 c 0
 1297 1220 1155 1124 1078 989 c 1
 1068 1029 1051 1063 1023 1092 c 0
 951 1166 833 1220 693 1220 c 0
 462 1220 302 1140 221 989 c 1
 327 880 l 1
 398 998 507 1060 682 1060 c 0
 876 1060 953 915 953 721 c 2
 953 706 l 1
 568 706 143 701 143 315 c 0
 143 258 153 207 175 162 c 1
 236 30 372 -49 565 -49 c 0
605 112 m 0
 455 112 341 175 341 324 c 0
 341 372 354 410 379 439 c 0
 457 528 618 539 783 543 c 1
 955 546 l 1
 955 291 863 112 605 112 c 0
1155 707 m 1
 1158 753 1171 798 1188 841 c 1
 1240 961 1345 1060 1515 1060 c 0
 1738 1060 1817 912 1837 707 c 1
 1155 707 l 1
EndSplineSet
EndChar

StartChar: ampersand
Encoding: 38 38 97
Width: 1854
VWidth: 0
GlyphClass: 2
Flags: HW
LayerCount: 2
UndoRedoHistory
Layer: 1
Undoes
EndUndoes
Redoes
EndRedoes
EndUndoRedoHistory
Fore
SplineSet
697 -47 m 0
 970 -47 1150 66 1290 203 c 1
 1395 102 1491 -4 1665 -30 c 1
 1821 85 l 1
 1772 96 1728 107 1691 118 c 1
 1564 160 1487 229 1400 318 c 1
 1531 485 1628 718 1638 998 c 1
 1442 1022 l 1
 1442 973 1438 924 1429 872 c 0
 1402 710 1342 564 1264 452 c 1
 777 949 l 1
 869 998 960 1059 1027 1132 c 1
 1084 1192 1137 1271 1137 1379 c 0
 1137 1436 1125 1484 1099 1527 c 0
 1028 1644 884 1714 697 1714 c 0
 463 1714 272 1606 272 1373 c 0
 272 1332 278 1293 291 1259 c 0
 333 1144 420 1066 501 985 c 1
 391 926 277 858 194 773 c 0
 118 696 56 599 56 456 c 0
 56 377 70 305 103 243 c 0
 201 57 415 -47 697 -47 c 0
693 120 m 0
 631 120 574 129 522 146 c 0
 388 191 267 288 267 461 c 0
 267 512 277 557 296 597 c 0
 360 726 490 799 618 865 c 1
 888 599 l 2
 969 518 1056 425 1135 349 c 0
 1150 334 1161 326 1163 326 c 1
 1049 215 917 120 693 120 c 0
655 1062 m 1
 628 1087 603 1110 581 1133 c 0
 528 1191 475 1260 475 1367 c 0
 475 1496 577 1557 706 1557 c 0
 832 1557 937 1495 937 1367 c 0
 937 1334 928 1304 912 1275 c 0
 859 1179 755 1114 655 1062 c 1
EndSplineSet
EndChar

StartChar: approxequal
Encoding: 8776 8776 99
Width: 2379
VWidth: 0
GlyphClass: 2
Flags: W
LayerCount: 2
Fore
SplineSet
404 460 m 1
 434 563 491 654 617 654 c 0
 650 654 683 646 719 631 c 0
 779 605 861 555 919 525 c 0
 983 492 1051 461 1144 461 c 0
 1348 461 1444 593 1483 762 c 1
 1354 795 l 1
 1318 697 1268 599 1151 599 c 0
 1117 599 1081 611 1041 630 c 1
 1001 651 958 673 913 697 c 0
 834 741 734 795 620 795 c 0
 421 795 311 662 270 493 c 1
 404 460 l 1
402 898 m 1
 433 1000 488 1091 612 1091 c 0
 646 1091 680 1084 714 1069 c 0
 775 1042 856 992 916 962 c 0
 983 928 1047 898 1141 898 c 0
 1344 898 1445 1029 1481 1199 c 1
 1352 1232 l 1
 1316 1131 1267 1036 1148 1036 c 0
 1116 1036 1083 1045 1045 1060 c 0
 919 1112 790 1230 617 1230 c 0
 416 1230 306 1103 267 930 c 1
 402 898 l 1
EndSplineSet
EndChar

StartChar: asciicircum
Encoding: 94 94 101
Width: 2566
VWidth: 0
GlyphClass: 2
Flags: W
LayerCount: 2
Fore
SplineSet
324 968 m 1
 480 968 l 1
 851 1674 l 1
 1236 968 l 1
 1390 968 l 1
 904 1846 l 1
 803 1846 l 1
 324 968 l 1
EndSplineSet
EndChar

StartChar: asciitilde
Encoding: 126 126 102
Width: 2567
VWidth: 0
GlyphClass: 2
Flags: W
LayerCount: 2
Fore
SplineSet
468 678 m 1
 493 784 561 896 691 896 c 0
 715 896 743 891 773 882 c 0
 874 850 969 797 1062 757 c 0
 1111 735 1172 708 1233 708 c 0
 1280 708 1322 715 1361 731 c 0
 1481 782 1553 890 1586 1029 c 1
 1439 1075 l 1
 1417 979 1352 866 1235 866 c 0
 1216 866 1194 871 1168 880 c 0
 1073 915 979 967 884 1005 c 1
 826 1027 759 1054 688 1054 c 0
 638 1054 594 1046 554 1028 c 0
 440 979 361 875 333 742 c 1
 468 678 l 1
EndSplineSet
EndChar

StartChar: asterisk
Encoding: 42 42 103
Width: 989
VWidth: 0
GlyphClass: 2
Flags: HW
LayerCount: 2
UndoRedoHistory
Layer: 1
Undoes
EndUndoes
Redoes
EndRedoes
EndUndoRedoHistory
Fore
SplineSet
691 1298 m 1
 839 1384 l 1
 603 1679 l 1
 912 1782 l 1
 836 1928 l 1
 561 1786 l 1
 561 2136 l 1
 394 2136 l 1
 409 2019 427 1898 442 1780 c 1
 109 1925 l 1
 84 1766 l 1
 405 1675 l 1
 180 1395 l 1
 326 1307 l 1
 506 1610 l 1
 691 1298 l 1
EndSplineSet
EndChar

StartChar: at
Encoding: 64 64 104
Width: 3337
VWidth: 0
GlyphClass: 2
Flags: W
LayerCount: 2
Fore
SplineSet
1023 -192 m 0
 1210 -192 1405 -146 1580 -51 c 1
 1490 88 l 1
 1354 17 1202 -19 1054 -19 c 0
 703 -19 377 183 377 598 c 0
 377 1012 713 1214 1035 1214 c 0
 1329 1214 1611 1044 1611 709 c 0
 1611 416 1491 303 1402 303 c 0
 1351 303 1311 340 1311 400 c 0
 1311 417 1365 664 1446 1018 c 1
 1262 1018 l 1
 1223 933 l 1
 1155 1015 1072 1049 985 1049 c 0
 765 1049 530 822 530 544 c 0
 530 308 681 171 845 171 c 0
 950 171 1059 227 1137 348 c 1
 1138 224 1250 170 1363 170 c 0
 1633 170 1812 383 1812 704 c 0
 1812 1162 1433 1386 1037 1386 c 0
 599 1386 141 1156 141 593 c 0
 141 86 561 -192 1023 -192 c 0
906 337 m 0
 831 337 768 398 768 523 c 0
 768 755 922 895 1037 895 c 0
 1103 895 1157 847 1157 740 c 0
 1157 473 1017 337 906 337 c 0
EndSplineSet
EndChar

StartChar: b
Encoding: 98 98 106
Width: 1248
VWidth: 0
GlyphClass: 2
Flags: HW
PickledData: "(dp1
S'com.typemytype.robofont.layerData'
p2
(dp3
s."
LayerCount: 2
UndoRedoHistory
Layer: 1
Undoes
EndUndoes
Redoes
EndRedoes
EndUndoRedoHistory
Fore
SplineSet
632 -22 m 0
 948 -22 1160 198 1160 528 c 0
 1160 821 980 1016 710 1016 c 0
 560 1016 411 947 344 844 c 1
 344 1550 l 1
 100 1521 l 1
 100 69 l 1
 101 69 315 -22 632 -22 c 0
615 174 m 0
 456 174 344 206 344 206 c 1
 344 607 l 1
 418 734 547 820 661 820 c 0
 811 820 911 699 911 524 c 0
 911 314 793 174 615 174 c 0
EndSplineSet
EndChar

StartChar: backslash
Encoding: 92 92 107
Width: 1243
VWidth: 0
GlyphClass: 2
Flags: W
LayerCount: 2
Fore
SplineSet
491 -210 m 1
 726 -210 l 1
 114 1353 l 1
 -123 1353 l 1
 491 -210 l 1
EndSplineSet
EndChar

StartChar: bar
Encoding: 124 124 108
Width: 880
VWidth: 0
GlyphClass: 2
Flags: W
LayerCount: 2
Fore
SplineSet
296 -865 m 1
 481 -865 l 1
 481 1526 l 1
 296 1526 l 1
 296 -865 l 1
EndSplineSet
EndChar

StartChar: braceleft
Encoding: 123 123 109
Width: 1104
VWidth: 0
GlyphClass: 2
Flags: W
LayerCount: 2
Fore
SplineSet
715 -456 m 1
 715 -308 l 1
 679 -308 648 -304 624 -295 c 0
 534 -264 524 -154 524 -27 c 0
 524 50 525 155 525 230 c 0
 525 383 474 496 366 547 c 1
 463 599 530 713 530 868 c 2
 531 1207 l 2
 531 1343 584 1400 715 1404 c 1
 715 1552 l 1
 462 1552 336 1440 336 1190 c 1
 337 1141 338 1090 338 1041 c 0
 338 991 340 943 341 894 c 1
 341 739 292 631 151 618 c 1
 151 476 l 1
 311 459 337 343 337 169 c 2
 336 -138 l 2
 336 -367 497 -447 715 -456 c 1
EndSplineSet
EndChar

StartChar: braceright
Encoding: 125 125 110
Width: 1104
VWidth: 0
GlyphClass: 2
Flags: W
LayerCount: 2
Fore
SplineSet
116 -456 m 1
 334 -447 495 -367 495 -138 c 2
 494 169 l 2
 494 206 494 240 497 275 c 0
 504 395 560 464 679 476 c 1
 681 618 l 1
 540 631 490 739 490 894 c 1
 492 943 494 991 494 1041 c 0
 494 1090 494 1141 495 1190 c 1
 495 1440 368 1552 116 1552 c 1
 116 1404 l 1
 248 1400 301 1343 301 1207 c 2
 302 868 l 2
 302 712 366 599 466 547 c 1
 358 496 305 383 305 230 c 0
 305 153 308 50 308 -27 c 0
 308 -82 304 -127 298 -163 c 0
 280 -264 234 -308 116 -308 c 1
 116 -456 l 1
EndSplineSet
EndChar

StartChar: bracketleft
Encoding: 91 91 111
Width: 1105
VWidth: 0
GlyphClass: 2
Flags: W
LayerCount: 2
Fore
SplineSet
166 -456 m 1
 617 -456 l 1
 617 -327 l 1
 425 -327 l 1
 425 1116 l 1
 617 1116 l 1
 617 1246 l 1
 166 1246 l 1
 166 -456 l 1
EndSplineSet
EndChar

StartChar: bracketright
Encoding: 93 93 112
Width: 1105
VWidth: 0
GlyphClass: 2
Flags: W
LayerCount: 2
Fore
SplineSet
166 -456 m 1
 617 -456 l 1
 617 1246 l 1
 167 1246 l 1
 167 1116 l 1
 359 1116 l 1
 359 -327 l 1
 166 -327 l 1
 166 -456 l 1
EndSplineSet
EndChar

StartChar: breve
Encoding: 728 728 113
Width: 1107
VWidth: 0
GlyphClass: 2
Flags: W
LayerCount: 2
Fore
SplineSet
390 2145 m 0
 585 2145 704 2242 719 2423 c 1
 617 2423 l 1
 594 2324 502 2271 382 2271 c 0
 262 2271 176 2320 159 2423 c 1
 57 2423 l 1
 72 2235 190 2145 390 2145 c 0
EndSplineSet
EndChar

StartChar: brokenbar
Encoding: 166 166 114
Width: 880
VWidth: 0
GlyphClass: 2
Flags: W
LayerCount: 2
Fore
SplineSet
296 -865 m 1
 481 -865 l 1
 481 173 l 1
 296 173 l 1
 296 -865 l 1
296 507 m 1
 481 507 l 1
 481 1526 l 1
 296 1526 l 1
 296 507 l 1
EndSplineSet
EndChar

StartChar: bullet
Encoding: 8226 8226 115
Width: 1739
VWidth: 0
GlyphClass: 2
Flags: W
LayerCount: 2
Fore
SplineSet
672 678 m 0
 791 678 887 726 952 787 c 1
 1016 845 1071 935 1071 1049 c 0
 1071 1098 1061 1145 1039 1189 c 1
 981 1312 856 1411 677 1411 c 0
 625 1411 573 1403 525 1382 c 1
 397 1330 277 1215 277 1041 c 0
 277 992 287 944 307 901 c 0
 365 776 491 678 672 678 c 0
EndSplineSet
EndChar

StartChar: c
Encoding: 99 99 116
Width: 1050
VWidth: 0
GlyphClass: 2
Flags: HW
PickledData: "(dp1
S'com.typemytype.robofont.layerData'
p2
(dp3
s."
LayerCount: 2
UndoRedoHistory
Layer: 1
Undoes
EndUndoes
Redoes
EndRedoes
EndUndoRedoHistory
Fore
SplineSet
620 -22 m 0
 757 -22 910 29 1005 104 c 1
 927 290 l 1
 853 226 735 174 634 174 c 0
 432 174 302 307 302 493 c 0
 302 688 423 820 619 820 c 0
 711 820 827 779 901 721 c 1
 972 894 l 1
 876 966 730 1016 609 1016 c 0
 275 1016 53 804 53 488 c 0
 53 182 279 -22 620 -22 c 0
EndSplineSet
EndChar

StartChar: caron
Encoding: 711 711 118
Width: 1231
VWidth: 0
GlyphClass: 2
Flags: W
LayerCount: 2
Fore
SplineSet
332 2061 m 1
 514 2061 l 1
 795 2440 l 1
 613 2440 l 1
 416 2187 l 1
 224 2440 l 1
 51 2440 l 1
 332 2061 l 1
EndSplineSet
EndChar

StartChar: cedilla
Encoding: 184 184 121
Width: 931
VWidth: 0
GlyphClass: 2
Flags: W
LayerCount: 2
Fore
SplineSet
297 -697 m 0
 440 -697 580 -654 580 -513 c 0
 580 -387 467 -344 345 -338 c 1
 335 -338 l 1
 355 -212 l 1
 242 -212 l 1
 203 -435 l 1
 241 -433 l 1
 254 -431 274 -430 284 -430 c 0
 355 -430 412 -446 412 -516 c 0
 412 -581 355 -600 278 -600 c 0
 215 -600 159 -586 101 -572 c 1
 91 -672 l 1
 155 -685 226 -697 297 -697 c 0
EndSplineSet
EndChar

StartChar: cent
Encoding: 162 162 122
Width: 2094
VWidth: 0
GlyphClass: 2
Flags: W
LayerCount: 2
Fore
SplineSet
705 -414 m 1
 838 -414 l 1
 838 -162 l 1
 953 -151 1076 -110 1201 -36 c 1
 1159 126 l 1
 1047 49 937 13 838 3 c 1
 838 927 l 1
 949 916 1034 874 1092 802 c 1
 1182 933 l 1
 1112 1026 992 1081 838 1093 c 1
 838 1366 l 1
 705 1366 l 1
 705 1093 l 1
 368 1064 166 807 166 452 c 0
 166 112 393 -132 705 -162 c 1
 705 -414 l 1
705 6 m 1
 505 37 369 196 369 458 c 0
 369 700 485 888 705 924 c 1
 705 6 l 1
EndSplineSet
EndChar

StartChar: circumflex
Encoding: 710 710 123
Width: 1231
VWidth: 0
GlyphClass: 2
Flags: W
LayerCount: 2
Fore
SplineSet
27 2061 m 1
 245 2061 l 1
 410 2245 l 1
 569 2061 l 1
 795 2061 l 1
 502 2442 l 1
 318 2442 l 1
 27 2061 l 1
EndSplineSet
EndChar

StartChar: colon
Encoding: 58 58 124
Width: 465
VWidth: 0
GlyphClass: 2
Flags: HW
LayerCount: 2
UndoRedoHistory
Layer: 1
Undoes
EndUndoes
Redoes
EndRedoes
EndUndoRedoHistory
Fore
SplineSet
105 -20 m 1
 360 -20 l 1
 360 227 l 1
 105 227 l 1
 105 -20 l 1
105 980 m 1
 360 980 l 1
 360 1227 l 1
 105 1227 l 1
 105 980 l 1
EndSplineSet
EndChar

StartChar: comma
Encoding: 44 44 125
Width: 951
VWidth: 0
GlyphClass: 2
Flags: W
LayerCount: 2
Fore
SplineSet
138 -451 m 1
 292 -451 l 1
 482 93 l 1
 263 93 l 1
 138 -451 l 1
EndSplineSet
EndChar

StartChar: commaaccentcomb
Encoding: 806 806 126
Width: 951
VWidth: 0
GlyphClass: 2
Flags: W
LayerCount: 2
Fore
SplineSet
138 -1101 m 1
 292 -1101 l 1
 482 -557 l 1
 263 -557 l 1
 138 -1101 l 1
EndSplineSet
EndChar

StartChar: copyright
Encoding: 169 169 127
Width: 3221
VWidth: 0
GlyphClass: 2
Flags: W
LayerCount: 2
Fore
SplineSet
1164 273 m 0
 1305 273 1426 308 1527 379 c 1
 1481 521 l 1
 1410 463 1321 427 1202 427 c 0
 1132 427 1071 439 1018 460 c 0
 876 518 780 646 780 842 c 0
 780 898 790 951 808 1000 c 0
 860 1142 979 1250 1169 1250 c 0
 1295 1250 1400 1212 1486 1138 c 1
 1522 1279 l 1
 1427 1360 1312 1399 1177 1399 c 0
 1090 1399 1012 1385 941 1357 c 0
 745 1280 600 1107 600 837 c 0
 600 759 615 685 643 617 c 0
 721 424 897 273 1164 273 c 0
1133 -57 m 0
 1425 -57 1643 59 1798 206 c 0
 1948 348 2076 550 2076 832 c 0
 2076 913 2064 991 2042 1066 c 0
 1994 1225 1907 1355 1798 1458 c 0
 1642 1605 1423 1723 1127 1723 c 0
 835 1723 618 1607 461 1460 c 1
 311 1318 181 1116 181 833 c 0
 181 752 193 674 215 599 c 0
 263 441 349 309 459 206 c 0
 616 59 837 -57 1133 -57 c 0
1133 81 m 0
 889 81 693 173 561 298 c 0
 433 418 330 599 330 835 c 0
 330 1068 433 1249 561 1369 c 0
 692 1491 885 1585 1128 1585 c 0
 1371 1585 1567 1491 1698 1367 c 0
 1825 1247 1927 1066 1927 832 c 0
 1927 598 1824 418 1698 298 c 0
 1568 174 1376 81 1133 81 c 0
EndSplineSet
EndChar

StartChar: currency
Encoding: 164 164 128
Width: 2180
VWidth: 0
GlyphClass: 2
Flags: W
LayerCount: 2
Fore
SplineSet
247 343 m 1
 436 540 l 1
 516 475 618 436 727 436 c 0
 844 436 951 479 1032 550 c 1
 1230 361 l 1
 1273 403 l 1
 1076 593 l 1
 1143 670 1183 769 1186 879 c 0
 1189 998 1144 1108 1069 1191 c 1
 1256 1384 l 1
 1208 1429 l 1
 1023 1236 l 1
 946 1301 847 1342 739 1345 c 0
 621 1348 508 1302 423 1226 c 1
 232 1410 l 1
 187 1365 l 1
 378 1180 l 1
 310 1101 267 1000 267 891 c 0
 267 772 315 662 392 581 c 1
 205 387 l 1
 247 343 l 1
724 526 m 0
 526 526 372 688 372 888 c 0
 372 1086 535 1252 734 1247 c 0
 932 1243 1082 1077 1078 879 c 0
 1073 680 923 526 724 526 c 0
EndSplineSet
EndChar

StartChar: d
Encoding: 100 100 129
Width: 1226
VWidth: 0
GlyphClass: 2
Flags: HW
PickledData: "(dp1
S'com.typemytype.robofont.layerData'
p2
(dp3
s."
LayerCount: 2
UndoRedoHistory
Layer: 1
Undoes
EndUndoes
Redoes
EndRedoes
EndUndoRedoHistory
Fore
SplineSet
548 -22 m 0
 700 -22 827 45 880 145 c 1
 890 101 918 39 952 -14 c 1
 1184 29 l 1
 1137 96 1108 241 1108 389 c 2
 1108 1544 l 1
 864 1531 l 1
 864 929 l 1
 793 982 689 1016 587 1016 c 0
 271 1016 60 805 60 486 c 0
 60 182 256 -22 548 -22 c 0
569 174 m 0
 413 174 309 301 309 492 c 0
 309 689 428 820 605 820 c 0
 709 820 816 778 864 714 c 1
 864 518 l 2
 864 313 742 174 569 174 c 0
EndSplineSet
EndChar

StartChar: dagger
Encoding: 8224 8224 130
Width: 1799
VWidth: 0
GlyphClass: 2
Flags: W
LayerCount: 2
Fore
SplineSet
571 199 m 1
 722 199 l 1
 722 1163 l 1
 1142 1163 l 1
 1142 1318 l 1
 738 1318 l 1
 738 1770 l 1
 571 1770 l 1
 571 1318 l 1
 188 1318 l 1
 188 1163 l 1
 571 1163 l 1
 571 199 l 1
EndSplineSet
EndChar

StartChar: daggerdbl
Encoding: 8225 8225 131
Width: 1799
VWidth: 0
GlyphClass: 2
Flags: W
LayerCount: 2
Fore
SplineSet
550 199 m 1
 752 199 l 1
 721 577 l 1
 1125 577 l 1
 1125 726 l 1
 721 726 l 1
 721 1220 l 1
 1133 1220 l 1
 1133 1376 l 1
 729 1376 l 1
 753 1770 l 1
 553 1770 l 1
 584 1376 l 1
 180 1376 l 1
 180 1220 l 1
 576 1220 l 1
 576 726 l 1
 173 726 l 1
 173 577 l 1
 576 577 l 1
 550 199 l 1
EndSplineSet
EndChar

StartChar: dblgravecmb
Encoding: 783 783 132
Width: 1704
VWidth: 0
GlyphClass: 2
Flags: W
LayerCount: 2
Fore
SplineSet
610 2067 m 1
 751 2067 l 1
 492 2435 l 1
 286 2435 l 1
 610 2067 l 1
925 2067 m 1
 1064 2067 l 1
 809 2435 l 1
 603 2435 l 1
 925 2067 l 1
EndSplineSet
EndChar

StartChar: degree
Encoding: 176 176 133
Width: 1486
VWidth: 0
GlyphClass: 2
Flags: W
LayerCount: 2
Fore
SplineSet
542 1643 m 0
 511 1643 480 1648 452 1658 c 0
 378 1687 315 1751 315 1853 c 0
 315 1882 322 1911 333 1937 c 1
 367 2008 441 2061 542 2061 c 0
 573 2061 601 2055 629 2045 c 0
 703 2017 770 1954 770 1853 c 0
 770 1824 764 1796 752 1770 c 0
 719 1699 645 1643 542 1643 c 0
542 1506 m 0
 593 1506 639 1514 685 1533 c 0
 805 1581 917 1687 917 1852 c 0
 917 1900 908 1944 888 1987 c 0
 833 2102 711 2197 542 2197 c 0
 492 2197 443 2188 397 2171 c 1
 277 2123 168 2015 168 1852 c 0
 168 1804 177 1760 197 1718 c 0
 252 1602 374 1506 542 1506 c 0
EndSplineSet
EndChar

StartChar: dieresis
Encoding: 168 168 134
Width: 1308
VWidth: 0
GlyphClass: 2
Flags: W
LayerCount: 2
Fore
SplineSet
143 2084 m 1
 406 2084 l 1
 406 2345 l 1
 143 2345 l 1
 143 2084 l 1
568 2084 m 1
 831 2084 l 1
 831 2345 l 1
 568 2345 l 1
 568 2084 l 1
EndSplineSet
EndChar

StartChar: divide
Encoding: 247 247 135
Width: 2567
VWidth: 0
GlyphClass: 2
Flags: W
LayerCount: 2
Fore
SplineSet
844 37 m 1
 1098 37 l 1
 1098 284 l 1
 844 284 l 1
 844 37 l 1
349 581 m 1
 1580 581 l 1
 1580 745 l 1
 349 745 l 1
 349 581 l 1
844 1037 m 1
 1098 1037 l 1
 1098 1284 l 1
 844 1284 l 1
 844 1037 l 1
EndSplineSet
EndChar

StartChar: dollar
Encoding: 36 36 136
Width: 1202
VWidth: 0
GlyphClass: 2
Flags: HW
LayerCount: 2
UndoRedoHistory
Layer: 1
Undoes
EndUndoes
Redoes
EndRedoes
EndUndoRedoHistory
Fore
SplineSet
516 -303 m 1
 661 -303 l 1
 657 -114 l 1
 724 -107 788 -95 848 -73 c 0
 1010 -14 1154 106 1154 322 c 0
 1154 459 1105 541 1028 608 c 0
 929 694 801 747 657 803 c 1
 659 1424 l 1
 803 1420 917 1380 1000 1306 c 1
 1057 1456 l 1
 963 1536 823 1585 658 1588 c 1
 654 1748 l 1
 509 1748 l 1
 514 1587 l 1
 381 1577 268 1516 190 1443 c 0
 115 1372 48 1266 48 1128 c 0
 48 1063 61 1007 85 961 c 0
 169 806 345 736 514 660 c 1
 509 48 l 1
 380 54 269 103 181 161 c 1
 124 3 l 1
 228 -72 348 -117 511 -120 c 1
 516 -303 l 1
654 52 m 1
 659 610 l 1
 785 556 945 494 945 319 c 0
 945 281 936 247 921 216 c 0
 875 125 776 69 654 52 c 1
511 859 m 1
 385 906 270 971 270 1143 c 0
 270 1300 373 1399 514 1417 c 1
 511 859 l 1
EndSplineSet
EndChar

StartChar: dotaccent
Encoding: 729 729 137
Width: 922
VWidth: 0
GlyphClass: 2
Flags: W
LayerCount: 2
Fore
SplineSet
324 2195 m 1
 513 2195 l 1
 513 2386 l 1
 324 2386 l 1
 324 2195 l 1
EndSplineSet
EndChar

StartChar: dotlessi
Encoding: 305 305 138
Width: 1062
VWidth: 0
GlyphClass: 2
Flags: W
LayerCount: 2
Fore
SplineSet
583 -9 m 0
 641 -9 713 6 777 32 c 1
 754 243 l 1
 708 226 660 216 626 216 c 0
 538 216 485 288 485 410 c 2
 485 1201 l 1
 185 1201 l 1
 185 323 l 2
 185 114 333 -9 583 -9 c 0
EndSplineSet
EndChar

StartChar: e
Encoding: 101 101 139
Width: 1094
VWidth: 0
GlyphClass: 2
Flags: HW
PickledData: "(dp1
S'com.typemytype.robofont.layerData'
p2
(dp3
s."
LayerCount: 2
UndoRedoHistory
Layer: 1
Undoes
EndUndoes
Redoes
EndRedoes
EndUndoRedoHistory
Fore
SplineSet
611 -22 m 0
 763 -22 939 43 1052 142 c 1
 964 312 l 1
 876 227 736 174 615 174 c 0
 481 174 363 241 323 347 c 1
 727 349 981 502 981 729 c 0
 981 901 825 1016 595 1016 c 0
 279 1016 55 791 55 499 c 0
 55 185 277 -22 611 -22 c 0
299 518 m 1
 299 527 l 1
 304 709 442 831 601 831 c 0
 687 831 744 787 744 722 c 0
 744 608 576 526 299 518 c 1
EndSplineSet
EndChar

StartChar: e.alt
Encoding: 65539 -1 140
Width: 1890
VWidth: 0
GlyphClass: 2
Flags: W
LayerCount: 2
Fore
SplineSet
746 -34 m 0
 945 -34 1106 43 1245 188 c 1
 1147 313 l 1
 1060 208 918 133 755 133 c 0
 598 133 447 214 395 425 c 1
 824 488 1166 583 1166 870 c 0
 1166 1066 1005 1229 750 1229 c 0
 372 1229 166 934 166 595 c 0
 166 195 436 -34 746 -34 c 0
380 564 m 1
 378 584 377 603 377 622 c 0
 377 852 516 1061 752 1061 c 0
 894 1061 975 982 975 875 c 0
 975 686 716 616 380 564 c 1
EndSplineSet
EndChar

StartChar: eight
Encoding: 56 56 145
Width: 1160
VWidth: 0
GlyphClass: 2
Flags: HW
PickledData: "(dp1
S'com.typemytype.robofont.layerData'
p2
(dp3
s."
LayerCount: 2
UndoRedoHistory
Layer: 1
Undoes
EndUndoes
Redoes
EndRedoes
EndUndoRedoHistory
Fore
SplineSet
580 6 m 0
 718 6 839 46 922 106 c 0
 1005 165 1071 256 1071 394 c 0
 1071 605 935 720 756 772 c 1
 913 820 1037 921 1037 1114 c 0
 1037 1171 1025 1221 1001 1266 c 0
 932 1398 780 1474 580 1474 c 0
 516 1474 458 1465 401 1450 c 1
 253 1406 123 1302 123 1114 c 0
 123 921 245 820 402 772 c 1
 224 720 88 605 88 394 c 0
 88 331 102 275 129 227 c 0
 206 89 368 6 580 6 c 0
580 147 m 0
 401 147 264 228 264 406 c 0
 264 447 273 483 289 515 c 0
 340 617 450 672 580 698 c 1
 736 667 895 592 895 406 c 0
 895 363 888 328 872 295 c 0
 826 200 721 147 580 147 c 0
580 844 m 1
 423 873 295 940 295 1109 c 0
 295 1146 302 1179 317 1207 c 0
 361 1290 455 1339 580 1339 c 0
 735 1339 865 1265 865 1109 c 0
 865 940 736 873 580 844 c 1
EndSplineSet
EndChar

StartChar: ellipsis
Encoding: 8230 8230 146
Width: 2853
VWidth: 0
GlyphClass: 2
Flags: W
LayerCount: 2
Fore
SplineSet
280 -20 m 1
 535 -20 l 1
 535 227 l 1
 280 227 l 1
 280 -20 l 1
914 -20 m 1
 1169 -20 l 1
 1169 227 l 1
 914 227 l 1
 914 -20 l 1
1548 -20 m 1
 1803 -20 l 1
 1803 227 l 1
 1548 227 l 1
 1548 -20 l 1
EndSplineSet
EndChar

StartChar: emdash
Encoding: 8212 8212 148
Width: 3823
VWidth: 0
GlyphClass: 2
Flags: W
LayerCount: 2
Fore
SplineSet
-5 861 m 1
 2534 861 l 1
 2534 1022 l 1
 -5 1022 l 1
 -5 861 l 1
EndSplineSet
EndChar

StartChar: endash
Encoding: 8211 8211 149
Width: 1910
VWidth: 0
GlyphClass: 2
Flags: W
LayerCount: 2
Fore
SplineSet
-10 861 m 1
 1269 861 l 1
 1269 1022 l 1
 -10 1022 l 1
 -10 861 l 1
EndSplineSet
EndChar

StartChar: equal
Encoding: 61 61 151
Width: 1254
VWidth: 0
GlyphClass: 2
Flags: HW
LayerCount: 2
UndoRedoHistory
Layer: 1
Undoes
EndUndoes
Redoes
EndRedoes
EndUndoRedoHistory
Fore
SplineSet
106 499 m 1
 1149 499 l 1
 1149 635 l 1
 106 635 l 1
 106 499 l 1
105 902 m 1
 1149 902 l 1
 1149 1041 l 1
 105 1041 l 1
 105 902 l 1
EndSplineSet
EndChar

StartChar: eth
Encoding: 240 240 152
Width: 2095
VWidth: 0
GlyphClass: 2
Flags: W
LayerCount: 2
Fore
SplineSet
734 -40 m 0
 829 -40 913 -22 988 12 c 1
 1232 129 1335 410 1335 776 c 0
 1335 933 1314 1068 1279 1191 c 1
 1449 1191 l 1
 1449 1352 l 1
 1218 1352 l 1
 1132 1531 1005 1663 818 1736 c 1
 726 1637 l 1
 855 1565 951 1479 1022 1352 c 1
 780 1352 l 1
 780 1191 l 1
 1087 1191 l 1
 1115 1087 1128 981 1129 847 c 1
 1129 836 l 1
 1045 970 903 1040 691 1040 c 0
 609 1040 536 1027 470 1001 c 0
 286 928 155 764 155 510 c 0
 155 433 167 359 195 293 c 1
 273 95 460 -40 734 -40 c 0
725 126 m 0
 669 126 620 134 575 153 c 0
 449 207 362 329 362 504 c 0
 362 736 489 875 723 875 c 0
 923 875 1060 766 1112 616 c 1
 1112 588 l 2
 1112 327 988 126 725 126 c 0
EndSplineSet
EndChar

StartChar: exclam
Encoding: 33 33 153
Width: 525
VWidth: 0
GlyphClass: 2
Flags: HW
LayerCount: 2
UndoRedoHistory
Layer: 1
Undoes
EndUndoes
Redoes
EndRedoes
EndUndoRedoHistory
Fore
SplineSet
264 0 m 0
 368 0 445 74 445 175 c 0
 445 277 369 351 265 351 c 0
 161 351 84 278 84 178 c 0
 84 75 159 0 264 0 c 0
193 518 m 1
 322 518 l 1
 416 1704 l 1
 102 1704 l 1
 193 518 l 1
EndSplineSet
EndChar

StartChar: exclamdown
Encoding: 161 161 154
Width: 1297
VWidth: 0
GlyphClass: 2
Flags: W
LayerCount: 2
Fore
SplineSet
458 -676 m 1
 653 -676 l 1
 653 589 l 1
 458 589 l 1
 458 -676 l 1
458 813 m 1
 710 813 l 1
 710 1054 l 1
 458 1054 l 1
 458 813 l 1
EndSplineSet
EndChar

StartChar: f
Encoding: 102 102 155
Width: 818
VWidth: 0
GlyphClass: 2
Flags: HW
PickledData: "(dp1
S'com.typemytype.robofont.layerData'
p2
(dp3
s."
LayerCount: 2
UndoRedoHistory
Layer: 1
Undoes
EndUndoes
Redoes
EndRedoes
EndUndoRedoHistory
Fore
SplineSet
88 -453 m 1
 368 -417 489 -273 489 -11 c 2
 489 844 l 1
 701 844 l 1
 701 996 l 1
 489 996 l 1
 489 1100 l 2
 489 1250 559 1302 663 1302 c 0
 690 1302 719 1300 751 1291 c 1
 775 1455 l 1
 722 1476 664 1488 606 1488 c 0
 422 1488 246 1374 246 1135 c 2
 246 996 l 1
 50 996 l 1
 50 844 l 1
 246 844 l 1
 246 -4 l 2
 246 -140 193 -212 67 -241 c 1
 88 -453 l 1
EndSplineSet
EndChar

StartChar: five
Encoding: 53 53 156
Width: 1049
VWidth: 0
GlyphClass: 2
Flags: HW
LayerCount: 2
UndoRedoHistory
Layer: 1
Undoes
EndUndoes
Redoes
EndRedoes
EndUndoRedoHistory
Fore
SplineSet
45 158 m 1
 157.99609375 25.9208984375 319.8515625 -33.4990234375 478.184570312 -31.943359375 c 0
 743.01953125 -29.33984375 998 143.862304688 998 433 c 0
 998 773.190429688 781.240234375 927.848632812 576.772460938 929.341796875 c 0
 479.518554688 930.052734375 385.044921875 896.110351562 318 831 c 1
 333 1205 l 1
 889 1205 l 1
 889 1404 l 1
 101 1404 l 1
 101 624 l 1
 276 624 l 1
 349.599609375 697.98046875 436.72265625 734.151367188 516.353515625 733.06640625 c 0
 645.537109375 731.306640625 755 631.495117188 755 436 c 0
 755 305.09765625 635.666015625 186.396484375 472.094726562 187.478515625 c 0
 370.756835938 188.149414062 252.439453125 234.795898438 135 353 c 1
 45 158 l 1
EndSplineSet
EndChar

StartChar: florin
Encoding: 402 402 157
Width: 2095
VWidth: 0
GlyphClass: 2
Flags: W
LayerCount: 2
Fore
SplineSet
250 -585 m 0
 322 -585 384 -570 431 -541 c 0
 580 -451 628 -255 668 -54 c 1
 817 748 l 1
 1067 748 l 1
 1078 912 l 1
 844 912 l 1
 886 1143 l 1
 908 1257 954 1324 1090 1324 c 0
 1136 1324 1178 1314 1217 1299 c 1
 1226 1469 l 1
 1174 1482 1117 1491 1059 1491 c 0
 798 1491 701 1318 670 1090 c 1
 643 912 l 1
 445 912 l 1
 433 748 l 1
 615 748 l 1
 555 437 509 110 435 -187 c 0
 409 -294 366 -422 235 -422 c 0
 206 -422 175 -417 143 -404 c 1
 129 -566 l 1
 173 -579 214 -585 250 -585 c 0
EndSplineSet
EndChar

StartChar: four
Encoding: 52 52 158
Width: 1306
VWidth: 0
GlyphClass: 2
Flags: HW
LayerCount: 2
UndoRedoHistory
Layer: 1
Undoes
EndUndoes
Redoes
EndRedoes
EndUndoRedoHistory
Fore
SplineSet
765 0 m 1
 1024 0 l 1
 1024 322 l 1
 1209 322 l 1
 1209 520 l 1
 1024 520 l 1
 1024 1413 l 1
 740 1413 l 1
 98 513 l 1
 98 322 l 1
 765 322 l 1
 765 0 l 1
358 520 m 1
 659 951 l 1
 765 1126 l 1
 765 520 l 1
 358 520 l 1
EndSplineSet
EndChar

StartChar: fraction
Encoding: 8260 8260 159
Width: 648
VWidth: 0
GlyphClass: 2
Flags: W
LayerCount: 2
Fore
SplineSet
-593 0 m 1
 -416 0 l 1
 644 1686 l 1
 469 1686 l 1
 -593 0 l 1
EndSplineSet
EndChar

StartChar: g
Encoding: 103 103 160
Width: 1169
VWidth: 0
GlyphClass: 2
Flags: HW
PickledData: "(dp1
S'com.typemytype.robofont.layerData'
p2
(dp3
s."
LayerCount: 2
UndoRedoHistory
Layer: 1
Undoes
EndUndoes
Redoes
EndRedoes
EndUndoRedoHistory
Fore
SplineSet
508 -543 m 0
 845 -543 1071 -329 1071 -7 c 2
 1071 906 l 1
 975 963 810 1016 672 1016 c 0
 331 1016 90 770 90 424 c 0
 90 163 268 -22 531 -22 c 0
 637 -22 745 23 814 90 c 1
 814 -15 l 2
 814 -202 674 -328 464 -328 c 0
 375 -328 263 -300 182 -260 c 1
 135 -460 l 1
 237 -511 387 -543 508 -543 c 0
550 174 m 0
 427 174 339 282 339 434 c 0
 339 659 472 820 659 820 c 0
 717 820 788 809 829 787 c 1
 829 419 l 2
 829 276 714 174 550 174 c 0
EndSplineSet
EndChar

StartChar: germandbls
Encoding: 223 223 162
Width: 2213
VWidth: 0
GlyphClass: 2
Flags: W
LayerCount: 2
Fore
SplineSet
1032 -40 m 0
 1090 -40 1145 -30 1199 -10 c 0
 1351 48 1479 179 1479 387 c 0
 1479 464 1465 532 1432 590 c 1
 1340 763 1154 864 950 924 c 0
 928 931 916 937 916 944 c 0
 916 958 936 966 947 970 c 0
 1028 1006 1103 1062 1162 1123 c 1
 1224 1184 1289 1269 1289 1386 c 0
 1289 1438 1279 1486 1257 1532 c 0
 1187 1677 1028 1761 811 1761 c 0
 730 1761 659 1749 595 1724 c 0
 415 1653 306 1493 306 1244 c 2
 309 -14 l 1
 502 -14 l 1
 502 105 501 241 501 370 c 0
 501 515 499 676 499 821 c 0
 499 949 498 1087 498 1206 c 0
 498 1429 587 1609 810 1609 c 0
 960 1609 1069 1535 1069 1385 c 0
 1069 1345 1062 1307 1047 1273 c 0
 999 1162 902 1084 792 1034 c 1
 773 874 l 1
 891 808 1014 739 1109 655 c 0
 1186 588 1260 500 1260 365 c 0
 1260 218 1172 114 1028 114 c 0
 900 114 803 189 732 272 c 1
 655 149 l 1
 739 41 863 -40 1032 -40 c 0
EndSplineSet
EndChar

StartChar: grave
Encoding: 96 96 163
Width: 1044
VWidth: 0
GlyphClass: 2
Flags: W
LayerCount: 2
Fore
SplineSet
226 2064 m 1
 415 2064 l 1
 169 2382 l 1
 -104 2382 l 1
 226 2064 l 1
EndSplineSet
EndChar

StartChar: greater
Encoding: 62 62 164
Width: 1108
VWidth: 0
GlyphClass: 2
Flags: HW
LayerCount: 2
UndoRedoHistory
Layer: 1
Undoes
EndUndoes
Redoes
EndRedoes
EndUndoRedoHistory
Fore
SplineSet
54 102 m 1
 1060 547 l 1
 1060 636 l 1
 60 1118 l 1
 60 966 l 1
 840 597 l 1
 54 255 l 1
 54 102 l 1
EndSplineSet
EndChar

StartChar: greaterequal
Encoding: 8805 8805 165
Width: 2377
VWidth: 0
GlyphClass: 2
Flags: W
LayerCount: 2
Fore
SplineSet
320 261 m 1
 1447 789 l 1
 1447 883 l 1
 324 1439 l 1
 324 1275 l 1
 1238 835 l 1
 320 427 l 1
 320 261 l 1
284 15 m 1
 1470 15 l 1
 1470 159 l 1
 284 159 l 1
 284 15 l 1
EndSplineSet
EndChar

StartChar: guillemotleft
Encoding: 171 171 166
Width: 2035
VWidth: 0
GlyphClass: 2
Flags: W
LayerCount: 2
Fore
SplineSet
749 301 m 1
 933 301 l 1
 633 735 l 1
 944 1174 l 1
 756 1174 l 1
 433 735 l 1
 749 301 l 1
1183 301 m 1
 1368 301 l 1
 1067 735 l 1
 1376 1174 l 1
 1189 1174 l 1
 868 735 l 1
 1183 301 l 1
EndSplineSet
EndChar

StartChar: guillemotright
Encoding: 187 187 167
Width: 2035
VWidth: 0
GlyphClass: 2
Flags: W
LayerCount: 2
Fore
SplineSet
291 301 m 1
 479 301 l 1
 802 737 l 1
 484 1174 l 1
 298 1174 l 1
 602 737 l 1
 291 301 l 1
758 301 m 1
 943 301 l 1
 1267 737 l 1
 949 1174 l 1
 766 1174 l 1
 1065 737 l 1
 758 301 l 1
EndSplineSet
EndChar

StartChar: guilsinglleft
Encoding: 8249 8249 168
Width: 1130
VWidth: 0
GlyphClass: 2
Flags: W
LayerCount: 2
Fore
SplineSet
501 301 m 1
 684 301 l 1
 384 735 l 1
 693 1174 l 1
 507 1174 l 1
 185 735 l 1
 501 301 l 1
EndSplineSet
EndChar

StartChar: guilsinglright
Encoding: 8250 8250 169
Width: 1130
VWidth: 0
GlyphClass: 2
Flags: W
LayerCount: 2
Fore
SplineSet
181 301 m 1
 366 301 l 1
 691 737 l 1
 373 1174 l 1
 191 1174 l 1
 489 737 l 1
 181 301 l 1
EndSplineSet
EndChar

StartChar: h
Encoding: 104 104 170
Width: 1275
VWidth: 0
GlyphClass: 2
Flags: HW
PickledData: "(dp1
S'com.typemytype.robofont.layerData'
p2
(dp3
s."
LayerCount: 2
UndoRedoHistory
Layer: 1
Undoes
EndUndoes
Redoes
EndRedoes
EndUndoRedoHistory
Fore
SplineSet
1179 -38 m 1
 1204 154 l 1
 1081 136 1072 195 1072 319 c 2
 1072 572 l 2
 1072 839 911 1016 669 1016 c 0
 568 1016 455 977 369 904 c 1
 369 1546 l 1
 120 1514 l 1
 120 3 l 1
 369 3 l 1
 369 661 l 1
 440 746 542 804 627 804 c 0
 748 804 830 702 830 549 c 2
 830 225 l 2
 830 26 914 -90 1179 -38 c 1
EndSplineSet
EndChar

StartChar: hbar
Encoding: 295 295 171
Width: 2156
VWidth: 0
GlyphClass: 2
Flags: W
LayerCount: 2
Fore
SplineSet
1429 -44 m 1
 1459 110 l 1
 1337 134 1298 230 1299 404 c 1
 1302 648 l 1
 1305 990 1192 1216 871 1216 c 0
 696 1216 541 1141 460 1006 c 1
 460 1777 l 1
 267 1754 l 1
 267 -15 l 1
 460 -15 l 1
 460 651 l 2
 460 892 652 1052 826 1052 c 0
 1074 1052 1109 886 1109 645 c 1
 1106 399 l 1
 1106 392 l 2
 1106 106 1197 -41 1429 -44 c 1
478 1892 m 1
 1149 1892 l 1
 1149 2049 l 1
 478 2049 l 1
 478 1892 l 1
EndSplineSet
EndChar

StartChar: hungarumlaut
Encoding: 733 733 172
Width: 1704
VWidth: 0
GlyphClass: 2
Flags: W
LayerCount: 2
Fore
SplineSet
286 2067 m 1
 424 2067 l 1
 747 2435 l 1
 540 2435 l 1
 286 2067 l 1
599 2067 m 1
 740 2067 l 1
 1064 2435 l 1
 857 2435 l 1
 599 2067 l 1
EndSplineSet
EndChar

StartChar: hyphen
Encoding: 45 45 173
Width: 1282
VWidth: 0
GlyphClass: 2
Flags: W
LayerCount: 2
Fore
SplineSet
139 861 m 1
 709 861 l 1
 709 997 l 1
 139 997 l 1
 139 861 l 1
EndSplineSet
EndChar

StartChar: i
Encoding: 105 105 174
Width: 686
VWidth: 0
GlyphClass: 2
Flags: HW
PickledData: "(dp1
S'com.typemytype.robofont.layerData'
p2
(dp3
s."
LayerCount: 2
UndoRedoHistory
Layer: 1
Undoes
EndUndoes
Redoes
EndRedoes
EndUndoRedoHistory
Fore
SplineSet
641 38 m 1
 610 222 l 1
 469 173 335 163 335 339 c 2
 335 1003 l 1
 91 1003 l 1
 91 277 l 2
 91 -22 411 -65 641 38 c 1
217 1176 m 0
 316 1176 386 1239 386 1330 c 0
 386 1421 316 1486 219 1486 c 0
 119 1486 50 1423 50 1331 c 0
 50 1239 119 1176 217 1176 c 0
EndSplineSet
EndChar

StartChar: infinity
Encoding: 8734 8734 181
Width: 3036
VWidth: 0
GlyphClass: 2
Flags: W
LayerCount: 2
Fore
SplineSet
597 415 m 0
 643 415 688 423 731 437 c 0
 876 487 978 597 1066 711 c 1
 1143 612 1220 538 1294 489 c 0
 1368 440 1449 415 1536 415 c 0
 1593 415 1646 426 1698 446 c 0
 1844 504 1960 638 1960 838 c 0
 1960 897 1951 951 1931 1001 c 0
 1873 1147 1741 1247 1539 1247 c 0
 1488 1247 1442 1241 1400 1226 c 0
 1253 1177 1156 1065 1068 951 c 1
 1034 996 999 1037 963 1073 c 0
 874 1163 761 1247 591 1247 c 0
 468 1247 365 1195 296 1133 c 0
 228 1071 169 978 169 857 c 0
 169 798 179 739 200 686 c 0
 258 536 391 415 597 415 c 0
600 556 m 0
 557 556 521 564 487 579 c 0
 398 620 322 707 322 833 c 0
 322 871 329 907 341 941 c 0
 376 1038 456 1112 588 1112 c 0
 629 1112 668 1104 704 1090 c 0
 829 1041 913 936 986 830 c 1
 934 759 874 688 808 636 c 0
 754 594 688 556 600 556 c 0
1539 556 m 0
 1453 556 1396 585 1342 626 c 0
 1266 682 1209 752 1147 833 c 1
 1195 904 1253 974 1319 1026 c 0
 1374 1070 1444 1112 1533 1112 c 0
 1572 1112 1606 1105 1639 1092 c 0
 1723 1057 1797 980 1797 864 c 0
 1797 685 1716 556 1539 556 c 0
EndSplineSet
EndChar

StartChar: integral
Encoding: 8747 8747 182
Width: 1236
VWidth: 0
GlyphClass: 2
Flags: W
LayerCount: 2
Fore
SplineSet
377 -703 m 0
 639 -703 726 -522 726 -261 c 2
 726 1268 l 2
 726 1428 758 1522 918 1522 c 0
 961 1522 1016 1517 1047 1505 c 1
 1044 1656 l 1
 992 1668 948 1680 884 1680 c 0
 623 1680 533 1500 533 1239 c 2
 533 -289 l 2
 533 -449 504 -544 344 -544 c 0
 300 -544 245 -538 215 -526 c 1
 218 -678 l 1
 274 -693 308 -703 377 -703 c 0
EndSplineSet
EndChar

StartChar: j
Encoding: 106 106 185
Width: 669
VWidth: 0
GlyphClass: 2
Flags: HW
PickledData: "(dp1
S'com.typemytype.robofont.layerData'
p2
(dp3
s."
LayerCount: 2
UndoRedoHistory
Layer: 1
Undoes
EndUndoes
Redoes
EndRedoes
EndUndoRedoHistory
Fore
SplineSet
224 -498 m 0
 464 -498 583 -351 583 -48 c 2
 583 996 l 1
 339 996 l 1
 339 -55 l 2
 339 -216 284 -294 182 -294 c 0
 177 -294 140 -290 76 -281 c 1
 43 -475 l 1
 110 -490 169 -498 224 -498 c 0
448 1169 m 0
 548 1169 618 1233 618 1323 c 0
 618 1416 548 1481 450 1481 c 0
 351 1481 281 1416 281 1324 c 0
 281 1234 351 1169 448 1169 c 0
EndSplineSet
EndChar

StartChar: k
Encoding: 107 107 187
Width: 1188
VWidth: 0
GlyphClass: 2
Flags: HW
PickledData: "(dp1
S'com.typemytype.robofont.layerData'
p2
(dp3
s."
LayerCount: 2
UndoRedoHistory
Layer: 1
Undoes
EndUndoes
Redoes
EndRedoes
EndUndoRedoHistory
Fore
SplineSet
1021 -68 m 1
 1136 126 l 1
 1011 129 956 178 861 288 c 2
 689 487 l 1
 1014 939 l 1
 782 987 l 1
 329 377 l 1
 329 1533 l 1
 87 1513 l 1
 87 88 l 2
 87 -41 233 -82 314 21 c 2
 539 307 l 1
 699 121 l 2
 808 -7 920 -68 1021 -68 c 1
EndSplineSet
EndChar

StartChar: k.alt
Encoding: 65540 -1 188
Width: 1905
VWidth: 0
GlyphClass: 2
Flags: W
LayerCount: 2
Fore
SplineSet
314 0 m 1
 461 0 l 1
 578 174 695 347 813 521 c 1
 1144 0 l 1
 1356 0 l 1
 921 680 l 1
 1039 855 1158 1030 1276 1205 c 1
 1066 1205 l 1
 507 362 l 1
 507 1791 l 1
 314 1791 l 1
 314 0 l 1
EndSplineSet
EndChar

StartChar: kgreenlandic
Encoding: 312 312 190
Width: 1905
VWidth: 0
GlyphClass: 2
Flags: W
LayerCount: 2
Fore
SplineSet
314 0 m 1
 507 0 l 1
 507 553 l 1
 1106 0 l 1
 1363 0 l 1
 1139 204 921 396 697 601 c 1
 1319 1205 l 1
 1054 1205 l 1
 507 654 l 1
 507 1205 l 1
 314 1205 l 1
 314 0 l 1
EndSplineSet
EndChar

StartChar: l
Encoding: 108 108 191
Width: 692
VWidth: 0
GlyphClass: 2
Flags: HW
PickledData: "(dp1
S'com.typemytype.robofont.layerData'
p2
(dp3
s."
LayerCount: 2
UndoRedoHistory
Layer: 1
Undoes
EndUndoes
Redoes
EndRedoes
EndUndoRedoHistory
Fore
SplineSet
403 -11 m 0
 480 -11 563 4 650 28 c 1
 625 218 l 1
 578 203 502 191 457 191 c 0
 361 191 303 241 303 353 c 2
 303 1555 l 1
 59 1526 l 1
 59 301 l 2
 59 83 203 -11 403 -11 c 0
EndSplineSet
EndChar

StartChar: less
Encoding: 60 60 193
Width: 1105
VWidth: 0
GlyphClass: 2
Flags: HW
LayerCount: 2
UndoRedoHistory
Layer: 1
Undoes
EndUndoes
Redoes
EndRedoes
EndUndoRedoHistory
Fore
SplineSet
1048 84 m 1
 1048 236 l 1
 267 586 l 1
 1052 947 l 1
 1052 1098 l 1
 49 629 l 1
 49 542 l 1
 1048 84 l 1
EndSplineSet
EndChar

StartChar: lessequal
Encoding: 8804 8804 194
Width: 2379
VWidth: 0
GlyphClass: 2
Flags: W
LayerCount: 2
Fore
SplineSet
1440 259 m 1
 1440 424 l 1
 531 838 l 1
 1440 1272 l 1
 1440 1437 l 1
 326 882 l 1
 326 787 l 1
 1440 259 l 1
284 15 m 1
 1474 15 l 1
 1474 159 l 1
 284 159 l 1
 284 15 l 1
EndSplineSet
EndChar

StartChar: logicalnot
Encoding: 172 172 195
Width: 2567
VWidth: 0
GlyphClass: 2
Flags: W
LayerCount: 2
Fore
SplineSet
1407 419 m 1
 1583 419 l 1
 1583 1077 l 1
 353 1077 l 1
 353 913 l 1
 1407 913 l 1
 1407 419 l 1
EndSplineSet
EndChar

StartChar: lozenge
Encoding: 9674 9674 196
Width: 2198
VWidth: 0
GlyphClass: 2
Flags: W
LayerCount: 2
Fore
SplineSet
726 -79 m 1
 850 -79 l 1
 1392 809 l 1
 860 1700 l 1
 734 1700 l 1
 197 808 l 1
 726 -79 l 1
788 89 m 1
 653 333 510 570 372 811 c 1
 514 1050 664 1281 800 1528 c 1
 933 1284 1077 1049 1215 808 c 1
 1073 567 924 335 788 89 c 1
EndSplineSet
EndChar

StartChar: lslash
Encoding: 322 322 197
Width: 885
VWidth: 0
GlyphClass: 2
Flags: W
LayerCount: 2
Fore
SplineSet
197 0 m 1
 391 0 l 1
 391 925 l 1
 592 1045 l 1
 592 1206 l 1
 391 1086 l 1
 391 1752 l 1
 197 1752 l 1
 197 970 l 1
 0 852 l 1
 0 691 l 1
 197 809 l 1
 197 0 l 1
EndSplineSet
EndChar

StartChar: m
Encoding: 109 109 198
Width: 1913
VWidth: 0
GlyphClass: 2
Flags: HW
PickledData: "(dp1
S'com.typemytype.robofont.layerData'
p2
(dp3
S'b'
(dp4
S'name'
p5
S'm'
sS'lib'
p6
(dp7
sS'unicodes'
p8
(tsS'width'
p9
I1975
sS'contours'
p10
((dp11
S'points'
p12
((dp13
S'segmentType'
p14
S'line'
p15
sS'x'
F1111
sS'smooth'
p16
I00
sS'y'
F0
s(dp17
g14
S'line'
p18
sS'x'
F1111
sg16
I01
sS'y'
F572
s(dp19
S'y'
F839
sS'x'
F1111
sg16
I00
s(dp20
S'y'
F1016
sS'x'
F951
sg16
I00
s(dp21
g14
S'curve'
p22
sS'x'
F709
sg16
I01
sS'y'
F1016
s(dp23
S'y'
F1016
sS'x'
F602
sg16
I00
s(dp24
S'y'
F973
sS'x'
F483
sg16
I00
s(dp25
g14
S'curve'
p26
sS'x'
F395
sg16
I00
sS'y'
F893
s(dp27
S'y'
F931
sS'x'
F378
sg16
I00
s(dp28
S'y'
F966
sS'x'
F354
sg16
I00
s(dp29
g14
S'curve'
p30
sS'x'
F326
sg16
I00
sS'y'
F993
s(dp31
g14
S'line'
p32
sS'x'
F86
sg16
I00
sS'y'
F904
s(dp33
S'y'
F828
sS'x'
F147
sg16
I00
s(dp34
S'y'
F711
sS'x'
F187
sg16
I00
s(dp35
g14
S'curve'
p36
sS'x'
F187
sg16
I01
sS'y'
F610
s(dp37
g14
S'line'
p38
sS'x'
F187
sg16
I00
sS'y'
F0
s(dp39
g14
S'line'
p40
sS'x'
F436
sg16
I00
sS'y'
F0
s(dp41
g14
S'line'
p42
sS'x'
F436
sg16
I00
sS'y'
F630
s(dp43
g14
S'line'
p44
sS'x'
F431
sg16
I00
sS'y'
F686
s(dp45
S'y'
F757
sS'x'
F500
sg16
I00
s(dp46
S'y'
F804
sS'x'
F589
sg16
I00
s(dp47
g14
S'curve'
p48
sS'x'
F666
sg16
I01
sS'y'
F804
s(dp49
S'y'
F804
sS'x'
F786
sg16
I00
s(dp50
S'y'
F702
sS'x'
F869
sg16
I00
s(dp51
g14
S'curve'
p52
sS'x'
F869
sg16
I01
sS'y'
F549
s(dp53
g14
S'line'
p54
sS'x'
F869
sg16
I00
sS'y'
F0
stp55
s(dp56
g12
((dp57
g14
S'line'
p58
sS'x'
F1101
sg16
I00
sS'y'
F686
s(dp59
S'y'
F757
sS'x'
F1170
sg16
I00
s(dp60
S'y'
F804
sS'x'
F1259
sg16
I00
s(dp61
g14
S'curve'
p62
sS'x'
F1336
sg16
I01
sS'y'
F804
s(dp63
S'y'
F804
sS'x'
F1456
sg16
I00
s(dp64
S'y'
F702
sS'x'
F1539
sg16
I00
s(dp65
g14
S'curve'
p66
sS'x'
F1539
sg16
I01
sS'y'
F549
s(dp67
g14
S'line'
p68
sS'x'
F1539
sg16
I01
sS'y'
F263
s(dp69
S'y'
F64
sS'x'
F1539
sg16
I00
s(dp70
S'y'
F-52
sS'x'
F1623
sg16
I00
s(dp71
g14
S'curve'
p72
sS'x'
F1889
sg16
I00
sS'y'
F0
s(dp73
g14
S'line'
p74
sS'x'
F1913
sg16
I00
sS'y'
F192
s(dp75
S'y'
F174
sS'x'
F1790
sg16
I00
s(dp76
S'y'
F233
sS'x'
F1781
sg16
I00
s(dp77
g14
S'curve'
p78
sS'x'
F1781
sg16
I01
sS'y'
F357
s(dp79
g14
S'line'
p80
sS'x'
F1781
sg16
I01
sS'y'
F572
s(dp81
S'y'
F839
sS'x'
F1781
sg16
I00
s(dp82
S'y'
F1016
sS'x'
F1621
sg16
I00
s(dp83
g14
S'curve'
p84
sS'x'
F1379
sg16
I01
sS'y'
F1016
s(dp85
S'y'
F1016
sS'x'
F1272
sg16
I00
s(dp86
S'y'
F974
sS'x'
F1152
sg16
I00
s(dp87
g14
S'curve'
p88
sS'x'
F1065
sg16
I01
sS'y'
F893
s(dp89
g14
S'line'
p90
sS'x'
F1013
sg16
I00
sS'y'
F845
stp91
stp92
sS'components'
p93
(tsS'anchors'
p94
(tsss."
LayerCount: 2
UndoRedoHistory
Layer: 1
Undoes
EndUndoes
Redoes
EndRedoes
EndUndoRedoHistory
Fore
SplineSet
1048 684 m 1
 1117 755 1209 804 1286 804 c 0
 1406 804 1489 702 1489 549 c 2
 1489 263 l 2
 1489 64 1573 -52 1839 0 c 1
 1863 192 l 1
 1740 174 1731 233 1731 357 c 2
 1731 572 l 2
 1731 839 1571 1016 1329 1016 c 0
 1222 1016 1097 984 963 845 c 1
 1048 684 l 1
1068 0 m 1
 1068 572 l 2
 1068 839 908 1016 666 1016 c 0
 559 1016 440 973 352 893 c 1
 335 931 311 966 283 993 c 1
 43 904 l 1
 104 828 144 711 144 610 c 2
 144 0 l 1
 393 0 l 1
 393 630 l 1
 388 686 l 1
 457 757 546 804 623 804 c 0
 743 804 826 702 826 549 c 2
 826 0 l 1
 1068 0 l 1
EndSplineSet
EndChar

StartChar: macron
Encoding: 175 175 199
Width: 1282
VWidth: 0
GlyphClass: 2
Flags: W
LayerCount: 2
Fore
SplineSet
139 2084 m 1
 811 2084 l 1
 811 2241 l 1
 139 2241 l 1
 139 2084 l 1
EndSplineSet
EndChar

StartChar: minus
Encoding: 8722 8722 200
Width: 2567
VWidth: 0
GlyphClass: 2
Flags: W
LayerCount: 2
Fore
SplineSet
349 874 m 1
 1581 874 l 1
 1581 1035 l 1
 349 1035 l 1
 349 874 l 1
EndSplineSet
EndChar

StartChar: multiply
Encoding: 215 215 201
Width: 2567
VWidth: 0
GlyphClass: 2
Flags: W
LayerCount: 2
Fore
SplineSet
688 271 m 1
 1037 619 l 1
 1385 271 l 1
 1507 393 l 1
 1158 741 l 1
 1507 1089 l 1
 1385 1211 l 1
 1037 862 l 1
 688 1211 l 1
 567 1090 l 1
 915 741 l 1
 567 392 l 1
 688 271 l 1
EndSplineSet
EndChar

StartChar: n
Encoding: 110 110 202
Width: 1250
VWidth: 0
GlyphClass: 2
Flags: HW
PickledData: "(dp1
S'com.typemytype.robofont.layerData'
p2
(dp3
s."
LayerCount: 2
UndoRedoHistory
Layer: 1
Undoes
EndUndoes
Redoes
EndRedoes
EndUndoRedoHistory
Fore
SplineSet
1176 0 m 1
 1200 192 l 1
 1077 174 1068 233 1068 357 c 2
 1068 572 l 2
 1068 839 908 1016 666 1016 c 0
 559 1016 440 973 352 893 c 1
 335 931 311 966 283 993 c 1
 43 904 l 1
 104 828 144 711 144 610 c 2
 144 0 l 1
 393 0 l 1
 393 630 l 1
 388 686 l 1
 457 757 546 804 623 804 c 0
 743 804 826 702 826 549 c 2
 826 263 l 2
 826 64 910 -52 1176 0 c 1
EndSplineSet
EndChar

StartChar: n.alt
Encoding: 65541 -1 203
Width: 2224
VWidth: 0
GlyphClass: 2
Flags: W
LayerCount: 2
Fore
SplineSet
1378 -42 m 1
 1419 106 l 1
 1331 124 1318 154 1318 286 c 2
 1318 303 l 1
 1321 652 l 1
 1321 664 l 2
 1321 1005 1218 1219 874 1219 c 0
 676 1219 579 1145 493 1023 c 1
 467 1190 l 1
 271 1190 l 1
 279 1133 302 907 302 807 c 2
 302 -14 l 1
 495 -14 l 1
 495 752 l 2
 495 924 660 1056 841 1056 c 0
 1089 1056 1127 914 1127 673 c 2
 1127 657 l 1
 1125 298 l 1
 1125 277 l 2
 1125 59 1157 -16 1378 -42 c 1
EndSplineSet
EndChar

StartChar: nine
Encoding: 57 57 205
Width: 1206
VWidth: 0
GlyphClass: 2
Flags: HW
PickledData: "(dp1
S'com.typemytype.robofont.layerData'
p2
(dp3
s."
LayerCount: 2
UndoRedoHistory
Layer: 1
Undoes
EndUndoes
Redoes
EndRedoes
EndUndoRedoHistory
Fore
SplineSet
615 701 m 0
 472 701 329 802 329 998 c 0
 329 1180 469 1271 610 1271 c 0
 752 1271 895 1178 895 996 c 0
 895 799 754 701 615 701 c 0
560 -132 m 1
 936 498 l 2
 1019 636 1114 854 1114 979 c 0
 1114 1308 857 1474 601 1474 c 0
 346 1474 92 1313 92 984 c 0
 92 718 298 506 578 506 c 0
 636 506 662 510 674 516 c 1
 353 -19 l 1
 560 -132 l 1
EndSplineSet
EndChar

StartChar: nine.alt
Encoding: 65542 -1 206
Width: 2095
VWidth: 0
GlyphClass: 2
Flags: W
LayerCount: 2
Fore
SplineSet
655 -40 m 0
 764 -40 861 -18 945 27 c 0
 1206 165 1335 474 1335 876 c 0
 1335 1008 1322 1125 1295 1226 c 0
 1225 1492 1061 1692 734 1692 c 0
 646 1692 565 1678 493 1650 c 0
 299 1573 155 1405 155 1142 c 0
 155 1065 168 992 193 928 c 0
 266 741 434 612 691 612 c 0
 903 612 1045 681 1129 817 c 1
 1129 789 l 1
 1126 606 1081 440 1006 325 c 0
 936 217 826 126 659 126 c 0
 522 126 413 171 329 261 c 1
 267 129 l 1
 347 27 476 -40 655 -40 c 0
723 777 m 0
 489 777 362 917 362 1147 c 0
 362 1202 370 1253 388 1299 c 0
 436 1429 548 1527 725 1527 c 0
 787 1527 842 1515 890 1493 c 0
 1016 1433 1115 1308 1115 1127 c 0
 1115 1073 1106 1024 1084 981 c 1
 1026 860 899 777 723 777 c 0
EndSplineSet
EndChar

StartChar: notequal
Encoding: 8800 8800 207
Width: 2379
VWidth: 0
GlyphClass: 2
Flags: W
LayerCount: 2
Fore
SplineSet
630 81 m 1
 796 408 l 1
 1482 408 l 1
 1471 550 l 1
 864 550 l 1
 1038 882 l 1
 1482 882 l 1
 1470 1024 l 1
 1106 1024 l 1
 1255 1324 l 1
 1109 1346 l 1
 949 1024 l 1
 282 1024 l 1
 293 882 l 1
 882 882 l 1
 710 550 l 1
 283 550 l 1
 293 408 l 1
 637 408 l 1
 488 102 l 1
 630 81 l 1
EndSplineSet
EndChar

StartChar: numbersign
Encoding: 35 35 209
Width: 1435
VWidth: 0
GlyphClass: 2
Flags: HW
LayerCount: 2
UndoRedoHistory
Layer: 1
Undoes
EndUndoes
Redoes
EndRedoes
EndUndoRedoHistory
Fore
SplineSet
244 106 m 1
 416 106 l 1
 512 605 l 1
 818 605 l 1
 725 106 l 1
 895 106 l 1
 992 605 l 1
 1297 605 l 1
 1314 752 l 1
 1018 752 l 1
 1078 1076 l 1
 1371 1076 l 1
 1388 1221 l 1
 1105 1221 l 1
 1197 1703 l 1
 1025 1703 l 1
 935 1221 l 1
 629 1221 l 1
 720 1703 l 1
 548 1703 l 1
 455 1221 l 1
 139 1221 l 1
 123 1076 l 1
 430 1076 l 1
 410 967 390 863 371 752 c 1
 60 752 l 1
 47 605 l 1
 343 605 l 1
 244 106 l 1
538 752 m 1
 602 1076 l 1
 908 1076 l 1
 848 752 l 1
 538 752 l 1
EndSplineSet
EndChar

StartChar: o
Encoding: 111 111 210
Width: 1251
VWidth: 0
GlyphClass: 2
Flags: HW
PickledData: "(dp1
S'com.typemytype.robofont.guides'
p2
(tsS'com.typemytype.robofont.layerData'
p3
(dp4
s."
LayerCount: 2
UndoRedoHistory
Layer: 1
Undoes
EndUndoes
Redoes
EndRedoes
EndUndoRedoHistory
Fore
SplineSet
626 174 m 0
 456 174 342 303 342 496 c 0
 342 689 455 820 624 820 c 0
 794 820 907 689 907 496 c 0
 907 303 795 174 626 174 c 0
624 -22 m 0
 944 -22 1157 186 1157 497 c 0
 1157 810 942 1016 623 1016 c 0
 305 1016 94 808 94 496 c 0
 94 185 306 -22 624 -22 c 0
EndSplineSet
EndChar

StartChar: oe
Encoding: 339 339 214
Width: 3470
VWidth: 0
GlyphClass: 2
Flags: W
LayerCount: 2
Fore
SplineSet
770 -49 m 0
 1018 -49 1183 51 1254 229 c 1
 1325 57 1479 -49 1710 -49 c 0
 1952 -49 2116 57 2209 225 c 1
 2106 327 l 1
 2032 209 1903 112 1723 112 c 0
 1665 112 1614 122 1569 142 c 0
 1441 201 1366 332 1361 513 c 1
 1361 536 l 1
 2247 538 l 1
 2247 600 l 2
 2247 964 2080 1220 1717 1220 c 0
 1481 1220 1340 1115 1260 948 c 1
 1172 1116 1029 1220 782 1220 c 0
 684 1220 596 1204 519 1170 c 0
 309 1079 162 877 162 581 c 0
 162 494 176 412 203 335 c 0
 283 112 470 -49 770 -49 c 0
782 112 m 0
 711 112 648 125 596 150 c 0
 451 219 366 368 366 579 c 0
 366 643 374 704 392 762 c 0
 441 925 562 1060 772 1060 c 0
 1047 1060 1164 858 1164 584 c 0
 1164 321 1047 112 782 112 c 0
1361 698 m 1
 1365 745 1375 791 1392 835 c 1
 1443 958 1553 1060 1724 1060 c 0
 1941 1060 2044 915 2044 698 c 1
 1361 698 l 1
EndSplineSet
EndChar

StartChar: ogonek
Encoding: 731 731 215
Width: 894
VWidth: 0
GlyphClass: 2
Flags: W
LayerCount: 2
Fore
SplineSet
341 -687 m 0
 416 -687 495 -675 548 -653 c 1
 548 -523 l 1
 495 -544 443 -559 367 -559 c 0
 307 -559 250 -523 250 -463 c 0
 250 -444 255 -425 267 -406 c 0
 317 -330 407 -279 488 -229 c 1
 337 -215 l 1
 273 -246 209 -287 163 -334 c 0
 124 -373 84 -425 84 -494 c 0
 84 -525 92 -553 104 -576 c 0
 144 -648 230 -687 341 -687 c 0
EndSplineSet
EndChar

StartChar: one
Encoding: 49 49 217
Width: 742
VWidth: 0
GlyphClass: 2
Flags: HW
LayerCount: 2
UndoRedoHistory
Layer: 1
Undoes
EndUndoes
Redoes
EndRedoes
EndUndoRedoHistory
Fore
SplineSet
383 0 m 1
 651 0 l 1
 651 1431 l 1
 389 1429 l 1
 322 1378 181 1295 65 1243 c 1
 125 1072 l 1
 231 1116 317 1163 383 1214 c 1
 383 0 l 1
EndSplineSet
EndChar

StartChar: onehalf
Encoding: 189 189 218
Width: 4840
VWidth: 0
GlyphClass: 2
Flags: W
LayerCount: 2
Fore
SplineSet
567 710 m 1
 1207 710 l 1
 1207 848 l 1
 780 848 l 1
 888 942 997 1032 1084 1136 c 0
 1148 1213 1209 1301 1209 1424 c 0
 1209 1465 1201 1501 1186 1535 c 1
 1140 1630 1038 1691 900 1691 c 0
 737 1691 627 1609 576 1491 c 1
 676 1399 l 1
 715 1482 782 1554 894 1554 c 0
 986 1554 1057 1511 1057 1422 c 0
 1057 1389 1046 1353 1021 1313 c 0
 997 1273 963 1229 920 1181 c 0
 815 1067 691 953 567 839 c 1
 567 710 l 1
1949 710 m 1
 2377 710 l 1
 2377 845 l 1
 2233 845 l 1
 2233 1675 l 1
 2110 1658 l 1
 2049 1621 1993 1590 1914 1565 c 1
 1912 1413 l 1
 1971 1435 2039 1465 2091 1492 c 1
 2091 1372 l 2
 2091 1311 2092 1253 2092 1183 c 2
 2092 849 l 1
 1949 849 l 1
 1949 710 l 1
-593 0 m 1
 -416 0 l 1
 644 1686 l 1
 469 1686 l 1
 -593 0 l 1
EndSplineSet
EndChar

StartChar: onequarter
Encoding: 188 188 219
Width: 4324
VWidth: 0
GlyphClass: 2
Flags: W
LayerCount: 2
Fore
SplineSet
-593 0 m 1
 -416 0 l 1
 515 1482 l 1
 515 1413 l 1
 573 1435 641 1465 693 1492 c 1
 693 1372 l 2
 693 1311 694 1253 694 1183 c 2
 694 849 l 1
 551 849 l 1
 551 710 l 1
 980 710 l 1
 980 845 l 1
 837 845 l 1
 837 1675 l 1
 713 1658 l 1
 672 1632 631 1610 584 1590 c 1
 644 1686 l 1
 469 1686 l 1
 -593 0 l 1
2049 722 m 1
 2190 722 l 1
 2190 943 l 1
 2332 943 l 1
 2321 1069 l 1
 2193 1069 l 1
 2193 1658 l 1
 2036 1658 l 1
 1606 1050 l 1
 1606 943 l 1
 2049 943 l 1
 2049 722 l 1
1769 1069 m 1
 2049 1461 l 1
 2049 1069 l 1
 1769 1069 l 1
EndSplineSet
EndChar

StartChar: ordfeminine
Encoding: 170 170 220
Width: 1312
VWidth: 0
GlyphClass: 2
Flags: W
LayerCount: 2
Fore
SplineSet
411 1353 m 0
 528 1353 617 1396 669 1460 c 1
 676 1374 l 1
 830 1374 l 1
 824 1445 822 1472 822 1524 c 2
 824 1901 l 1
 824 2095 694 2185 501 2185 c 0
 346 2185 229 2137 169 2036 c 1
 248 1948 l 1
 300 2025 378 2059 494 2059 c 0
 623 2059 668 2012 668 1883 c 2
 668 1873 l 1
 581 1861 489 1863 402 1851 c 1
 261 1829 116 1756 116 1596 c 0
 116 1559 123 1526 138 1496 c 0
 182 1407 279 1353 411 1353 c 0
435 1474 m 0
 344 1474 276 1507 276 1598 c 0
 276 1761 536 1728 668 1754 c 1
 668 1725 l 1
 660 1581 588 1474 435 1474 c 0
EndSplineSet
EndChar

StartChar: ordmasculine
Encoding: 186 186 221
Width: 1451
VWidth: 0
GlyphClass: 2
Flags: W
LayerCount: 2
Fore
SplineSet
519 1351 m 0
 588 1351 648 1362 700 1384 c 0
 841 1443 940 1570 940 1766 c 0
 940 1824 930 1879 913 1930 c 0
 859 2083 725 2184 519 2184 c 0
 451 2184 390 2172 338 2151 c 0
 196 2092 94 1966 94 1770 c 0
 94 1509 255 1351 519 1351 c 0
519 1477 m 0
 347 1477 258 1598 258 1769 c 0
 258 1935 349 2058 516 2058 c 0
 686 2058 778 1935 778 1765 c 0
 778 1600 685 1477 519 1477 c 0
EndSplineSet
EndChar

StartChar: oslash
Encoding: 248 248 222
Width: 2180
VWidth: 0
GlyphClass: 2
Flags: W
PickledData: "(dp1
S'com.typemytype.robofont.layerData'
p2
(dp3
s."
LayerCount: 2
Fore
SplineSet
467 -460 m 1
 1220 1309 l 1
 1099 1346 l 1
 351 -422 l 1
 467 -460 l 1
EndSplineSet
Refer: 210 111 N 1 0 0 1 0 0 2
EndChar

StartChar: p
Encoding: 112 112 224
Width: 1257
VWidth: 0
GlyphClass: 2
Flags: HW
PickledData: "(dp1
S'com.typemytype.robofont.layerData'
p2
(dp3
s."
LayerCount: 2
UndoRedoHistory
Layer: 1
Undoes
EndUndoes
Redoes
EndRedoes
EndUndoRedoHistory
Fore
SplineSet
140 -496 m 1
 389 -496 l 1
 391 67 l 1
 468 15 592 -22 692 -22 c 0
 991 -22 1203 198 1203 509 c 0
 1203 822 997 1016 717 1016 c 0
 592 1016 439 951 371 824 c 1
 359 894 325 951 279 994 c 1
 39 906 l 1
 78 855 140 810 140 610 c 2
 140 -496 l 1
658 174 m 0
 544 174 432 218 389 282 c 1
 389 417 l 2
 389 651 515 820 691 820 c 0
 858 820 954 695 954 503 c 0
 954 309 833 174 658 174 c 0
EndSplineSet
EndChar

StartChar: paragraph
Encoding: 182 182 225
Width: 2137
VWidth: 0
GlyphClass: 2
Flags: W
LayerCount: 2
Fore
SplineSet
581 -261 m 1
 750 -261 l 1
 750 1471 l 1
 994 1471 l 1
 994 -261 l 1
 1146 -261 l 1
 1146 1471 l 1
 1247 1471 l 1
 1247 1617 l 1
 795 1617 l 2
 485 1617 188 1550 188 1240 c 0
 188 1180 199 1125 220 1076 c 0
 277 943 399 839 581 836 c 1
 581 -261 l 1
EndSplineSet
EndChar

StartChar: parenleft
Encoding: 40 40 226
Width: 669
VWidth: 0
GlyphClass: 2
Flags: HW
LayerCount: 2
UndoRedoHistory
Layer: 1
Undoes
EndUndoes
Redoes
EndRedoes
EndUndoRedoHistory
Fore
SplineSet
356 -316 m 1
 619 -316 l 1
 446 56 362 363 362 670 c 0
 362 987 453 1303 631 1692 c 1
 368 1692 l 1
 160 1305 54 989 54 673 c 0
 54 365 154 56 356 -316 c 1
EndSplineSet
EndChar

StartChar: parenright
Encoding: 41 41 227
Width: 670
VWidth: 0
GlyphClass: 2
Flags: HW
LayerCount: 2
UndoRedoHistory
Layer: 1
Undoes
EndUndoes
Redoes
EndRedoes
EndUndoRedoHistory
Fore
SplineSet
50 -316 m 1
 313 -316 l 1
 516 56 616 365 616 673 c 0
 616 989 509 1305 302 1692 c 1
 39 1692 l 1
 216 1303 308 987 308 670 c 0
 308 363 224 56 50 -316 c 1
EndSplineSet
EndChar

StartChar: partialdiff
Encoding: 8706 8706 228
Width: 2055
VWidth: 0
GlyphClass: 2
Flags: W
LayerCount: 2
Fore
SplineSet
627 -42 m 0
 703 -42 775 -29 838 -1 c 0
 972 57 1071 157 1142 282 c 0
 1246 464 1310 703 1310 986 c 0
 1310 1124 1297 1242 1270 1343 c 0
 1203 1598 1050 1786 739 1786 c 0
 596 1786 466 1738 378 1679 c 1
 390 1517 l 1
 472 1572 579 1629 712 1629 c 0
 775 1629 828 1616 878 1590 c 0
 1037 1504 1109 1305 1109 1056 c 0
 1109 1031 1108 991 1108 968 c 1
 1026 1075 912 1163 737 1163 c 0
 654 1163 579 1144 507 1109 c 0
 299 1008 146 786 146 479 c 0
 146 405 156 337 176 273 c 0
 236 87 383 -42 627 -42 c 0
630 116 m 0
 586 116 546 125 512 142 c 0
 404 195 345 315 345 476 c 0
 345 628 396 759 465 848 c 0
 529 931 629 1006 764 1006 c 0
 805 1006 842 1000 876 986 c 0
 978 945 1050 860 1088 755 c 1
 1068 581 1012 419 935 304 c 0
 871 209 774 116 630 116 c 0
EndSplineSet
EndChar

StartChar: percent
Encoding: 37 37 229
Width: 2024
VWidth: 0
GlyphClass: 2
Flags: HW
LayerCount: 2
UndoRedoHistory
Layer: 1
Undoes
EndUndoes
Redoes
EndRedoes
EndUndoRedoHistory
Fore
SplineSet
464 789 m 0
 528 789 585 802 637 825 c 0
 781 891 882 1032 882 1238 c 0
 882 1503 737 1683 470 1683 c 0
 406 1683 347 1672 295 1649 c 0
 150 1584 50 1440 50 1233 c 0
 50 1171 59 1113 78 1059 c 0
 130 904 258 789 464 789 c 0
1554 -47 m 0
 1618 -47 1676 -36 1728 -12 c 0
 1872 53 1974 196 1974 402 c 0
 1974 667 1828 847 1561 847 c 0
 1497 847 1438 836 1386 812 c 0
 1241 747 1141 603 1141 396 c 0
 1141 333 1150 275 1169 222 c 0
 1223 66 1348 -47 1554 -47 c 0
468 922 m 0
 294 922 219 1061 219 1235 c 0
 219 1407 295 1551 469 1551 c 0
 510 1551 548 1543 579 1527 c 0
 668 1479 715 1377 715 1239 c 0
 715 1068 639 922 468 922 c 0
1557 85 m 0
 1515 85 1477 93 1447 110 c 1
 1356 158 1310 259 1310 396 c 0
 1310 568 1386 715 1560 715 c 0
 1731 715 1804 576 1804 403 c 0
 1804 232 1730 85 1557 85 c 0
369 -22 m 1
 550 -22 l 1
 1612 1670 l 1
 1431 1670 l 1
 369 -22 l 1
EndSplineSet
EndChar

StartChar: period
Encoding: 46 46 230
Width: 951
VWidth: 0
GlyphClass: 2
Flags: W
LayerCount: 2
Fore
SplineSet
316 0 m 0
 412 0 481 66 481 160 c 0
 481 255 412 322 316 322 c 0
 220 322 151 255 151 163 c 0
 151 68 220 0 316 0 c 0
EndSplineSet
EndChar

StartChar: periodcentered
Encoding: 183 183 231
Width: 781
VWidth: 0
GlyphClass: 2
Flags: W
LayerCount: 2
Fore
SplineSet
134 904 m 1
 389 904 l 1
 389 1151 l 1
 134 1151 l 1
 134 904 l 1
EndSplineSet
EndChar

StartChar: perthousand
Encoding: 8240 8240 232
Width: 4202
VWidth: 0
GlyphClass: 2
Flags: W
LayerCount: 2
Fore
SplineSet
525 853 m 0
 587 853 643 862 692 884 c 1
 830 941 923 1074 923 1266 c 0
 923 1525 785 1683 527 1683 c 0
 463 1683 407 1673 358 1651 c 1
 220 1594 129 1464 129 1270 c 0
 129 1015 269 853 525 853 c 0
1419 -47 m 0
 1483 -47 1538 -37 1588 -15 c 0
 1726 43 1817 172 1817 366 c 0
 1817 622 1681 784 1423 784 c 0
 1359 784 1301 774 1252 752 c 1
 1113 694 1023 564 1023 370 c 0
 1023 115 1164 -47 1419 -47 c 0
2344 -47 m 0
 2408 -47 2463 -37 2512 -15 c 1
 2650 42 2743 173 2743 366 c 0
 2743 624 2608 784 2349 784 c 0
 2285 784 2227 774 2178 752 c 1
 2039 694 1949 564 1949 370 c 0
 1949 115 2089 -47 2344 -47 c 0
529 986 m 0
 369 986 300 1111 300 1271 c 0
 300 1425 371 1551 525 1551 c 0
 682 1551 752 1426 752 1268 c 0
 752 1115 683 986 529 986 c 0
331 -40 m 1
 510 -40 l 1
 1607 1670 l 1
 1432 1670 l 1
 331 -40 l 1
1422 85 m 0
 1264 85 1194 210 1194 370 c 0
 1194 526 1265 650 1422 650 c 0
 1580 650 1649 528 1649 368 c 0
 1649 214 1576 85 1422 85 c 0
2348 85 m 0
 2190 85 2119 210 2119 370 c 0
 2119 526 2190 650 2347 650 c 0
 2504 650 2574 525 2574 368 c 0
 2574 213 2504 85 2348 85 c 0
EndSplineSet
EndChar

StartChar: pi
Encoding: 960 960 233
Width: 2268
VWidth: 0
GlyphClass: 2
Flags: W
LayerCount: 2
Fore
SplineSet
1256 -14 m 0
 1311 -14 1364 -6 1417 3 c 1
 1405 37 1402 72 1402 113 c 0
 1402 125 1402 137 1403 148 c 2
 1405 183 l 1
 1371 173 1340 168 1311 168 c 0
 1213 168 1195 238 1195 334 c 2
 1195 1060 l 1
 1435 1060 l 1
 1435 1217 l 1
 444 1217 l 2
 277 1217 123 1214 30 1143 c 1
 50 989 l 1
 140 1037 237 1057 375 1060 c 1
 370 862 358 661 334 478 c 0
 312 304 283 119 212 -4 c 1
 410 -4 l 1
 425 20 437 55 449 99 c 0
 526 389 548 722 574 1060 c 1
 1010 1060 l 1
 1010 322 l 2
 1010 117 1053 -14 1256 -14 c 0
EndSplineSet
EndChar

StartChar: plus
Encoding: 43 43 234
Width: 2567
VWidth: 0
GlyphClass: 2
Flags: W
LayerCount: 2
Fore
SplineSet
875 109 m 1
 1050 109 l 1
 1050 605 l 1
 1580 605 l 1
 1580 769 l 1
 1052 769 l 1
 1052 1266 l 1
 878 1266 l 1
 878 769 l 1
 349 769 l 1
 349 605 l 1
 875 605 l 1
 875 109 l 1
EndSplineSet
EndChar

StartChar: plusminus
Encoding: 177 177 235
Width: 2567
VWidth: 0
GlyphClass: 2
Flags: W
LayerCount: 2
Fore
SplineSet
870 262 m 1
 1047 262 l 1
 1047 699 l 1
 1572 699 l 1
 1572 861 l 1
 1042 861 l 1
 1042 1299 l 1
 868 1299 l 1
 868 861 l 1
 331 861 l 1
 346 699 l 1
 870 699 l 1
 870 262 l 1
346 0 m 1
 1577 0 l 1
 1577 163 l 1
 346 163 l 1
 346 0 l 1
EndSplineSet
EndChar

StartChar: product
Encoding: 8719 8719 236
Width: 2761
VWidth: 0
GlyphClass: 2
Flags: W
LayerCount: 2
Fore
SplineSet
359 -580 m 1
 564 -580 l 1
 564 1307 l 1
 1414 1307 l 1
 1414 -580 l 1
 1623 -580 l 1
 1623 1307 l 1
 1755 1307 l 1
 1774 1477 l 1
 194 1477 l 1
 212 1307 l 1
 359 1307 l 1
 359 -580 l 1
EndSplineSet
EndChar

StartChar: q
Encoding: 113 113 237
Width: 1515
VWidth: 0
GlyphClass: 2
Flags: HW
PickledData: "(dp1
S'com.typemytype.robofont.layerData'
p2
(dp3
s."
LayerCount: 2
UndoRedoHistory
Layer: 1
Undoes
EndUndoes
Redoes
EndRedoes
EndUndoRedoHistory
Fore
SplineSet
1114 -629 m 2
 1477 -439 l 1
 1384 -250 l 1
 1118 -384 l 1
 1118 610 l 1
 1118 952 l 1
 921 970 l 1
 908 903 l 1
 908 903 801 1016 566 1016 c 0
 267 1016 55 795 55 485 c 0
 55 171 262 -22 541 -22 c 0
 640 -22 791 8 869 104 c 1
 869 -496 l 2
 869 -574 947 -717 1114 -629 c 2
567 175 m 0
 400 175 304 299 304 491 c 0
 304 685 426 820 601 820 c 0
 715 820 826 776 869 712 c 1
 869 531 l 2
 869 277 743 175 567 175 c 0
EndSplineSet
EndChar

StartChar: question
Encoding: 63 63 238
Width: 1818
VWidth: 0
GlyphClass: 2
Flags: W
LayerCount: 2
Fore
SplineSet
494 366 m 1
 608 366 l 1
 608 738 1045 771 1045 1127 c 0
 1045 1367 861 1471 641 1471 c 0
 538 1471 425 1449 322 1406 c 1
 353 1241 l 1
 427 1283 518 1310 601 1310 c 0
 723 1310 826 1251 826 1100 c 0
 826 891 494 846 494 408 c 0
 494 393 493 380 494 366 c 1
546 0 m 0
 635 0 699 63 699 148 c 0
 699 235 636 298 548 298 c 0
 459 298 394 235 394 150 c 0
 394 63 457 0 546 0 c 0
EndSplineSet
EndChar

StartChar: questiondown
Encoding: 191 191 239
Width: 1818
VWidth: 0
GlyphClass: 2
Flags: W
LayerCount: 2
Fore
SplineSet
833 -20 m 0
 958 -20 1069 11 1163 57 c 1
 1163 229 l 1
 1080 182 979 147 857 147 c 0
 677 147 521 215 521 395 c 0
 521 442 532 485 554 525 c 0
 626 654 755 741 855 848 c 0
 911 909 972 986 972 1094 c 0
 972 1152 966 1227 960 1284 c 1
 767 1284 l 1
 777 1225 l 1
 784 1195 788 1150 788 1114 c 0
 788 1077 776 1040 753 1003 c 0
 672 874 540 774 444 657 c 0
 386 586 322 502 322 385 c 0
 322 317 335 259 361 208 c 0
 438 59 607 -20 833 -20 c 0
737 1483 m 1
 992 1483 l 1
 992 1729 l 1
 737 1729 l 1
 737 1483 l 1
EndSplineSet
EndChar

StartChar: quotedbl
Encoding: 34 34 240
Width: 731
VWidth: 0
GlyphClass: 2
Flags: HW
LayerCount: 2
UndoRedoHistory
Layer: 1
Undoes
EndUndoes
Redoes
EndRedoes
EndUndoRedoHistory
Fore
SplineSet
138 1742 m 1
 291 1742 l 1
 291 2284 l 1
 95 2284 l 1
 138 1742 l 1
477 1742 m 1
 629 1742 l 1
 629 2284 l 1
 435 2284 l 1
 477 1742 l 1
EndSplineSet
EndChar

StartChar: quotedblbase
Encoding: 8222 8222 241
Width: 1803
VWidth: 0
GlyphClass: 2
Flags: W
LayerCount: 2
Fore
SplineSet
314 -419 m 1
 471 -419 l 1
 650 96 l 1
 437 96 l 1
 314 -419 l 1
735 -419 m 1
 891 -419 l 1
 1072 96 l 1
 857 96 l 1
 735 -419 l 1
EndSplineSet
EndChar

StartChar: quotedblleft
Encoding: 8220 8220 242
Width: 1803
VWidth: 0
GlyphClass: 2
Flags: W
LayerCount: 2
Fore
SplineSet
316 1802 m 1
 529 1802 l 1
 652 2319 l 1
 496 2319 l 1
 316 1802 l 1
725 1802 m 1
 940 1802 l 1
 1062 2319 l 1
 906 2319 l 1
 725 1802 l 1
EndSplineSet
EndChar

StartChar: quotedblright
Encoding: 8221 8221 243
Width: 1803
VWidth: 0
GlyphClass: 2
Flags: W
LayerCount: 2
Fore
SplineSet
366 1802 m 1
 522 1802 l 1
 703 2319 l 1
 488 2319 l 1
 366 1802 l 1
749 1802 m 1
 906 1802 l 1
 1086 2319 l 1
 873 2319 l 1
 749 1802 l 1
EndSplineSet
EndChar

StartChar: quoteleft
Encoding: 8216 8216 244
Width: 974
VWidth: 0
GlyphClass: 2
Flags: W
LayerCount: 2
Fore
SplineSet
229 1802 m 1
 443 1802 l 1
 565 2319 l 1
 410 2319 l 1
 229 1802 l 1
EndSplineSet
EndChar

StartChar: quoteright
Encoding: 8217 8217 245
Width: 974
VWidth: 0
GlyphClass: 2
Flags: W
LayerCount: 2
Fore
SplineSet
247 1802 m 1
 402 1802 l 1
 582 2319 l 1
 370 2319 l 1
 247 1802 l 1
EndSplineSet
EndChar

StartChar: quotesinglbase
Encoding: 8218 8218 246
Width: 974
VWidth: 0
GlyphClass: 2
Flags: W
LayerCount: 2
Fore
SplineSet
220 -419 m 1
 376 -419 l 1
 557 96 l 1
 345 96 l 1
 220 -419 l 1
EndSplineSet
EndChar

StartChar: quotesingle
Encoding: 39 39 247
Width: 392
VWidth: 0
GlyphClass: 2
Flags: HW
LayerCount: 2
UndoRedoHistory
Layer: 1
Undoes
EndUndoes
Redoes
EndRedoes
EndUndoRedoHistory
Fore
SplineSet
137 1742 m 1
 290 1742 l 1
 290 2284 l 1
 95 2284 l 1
 137 1742 l 1
EndSplineSet
EndChar

StartChar: r
Encoding: 114 114 248
Width: 882
VWidth: 0
GlyphClass: 2
Flags: HW
LayerCount: 2
UndoRedoHistory
Layer: 1
Undoes
EndUndoes
Redoes
EndRedoes
EndUndoRedoHistory
Fore
SplineSet
164 0 m 1
 413 0 l 1
 413 525 l 1
 423 606 468 790 668 790 c 0
 703 790 740 785 784 774 c 1
 802 993 l 1
 767 1002 732 1012 652 1012 c 0
 544 1012 400 952 389 856 c 1
 373 912 342 958 303 996 c 1
 63 906 l 1
 102 857 164 810 164 611 c 2
 164 0 l 1
EndSplineSet
EndChar

StartChar: radical
Encoding: 8730 8730 249
Width: 2314
VWidth: 0
GlyphClass: 2
Flags: W
LayerCount: 2
Fore
SplineSet
768 -269 m 1
 927 -269 l 1
 1474 1784 l 1
 1322 1784 l 1
 883 165 l 1
 837 -41 l 1
 768 162 l 1
 500 879 l 1
 153 819 l 1
 176 688 l 1
 378 721 l 1
 768 -269 l 1
EndSplineSet
EndChar

StartChar: registered
Encoding: 174 174 252
Width: 3221
VWidth: 0
GlyphClass: 2
Flags: W
LayerCount: 2
Fore
SplineSet
762 302 m 1
 936 302 l 1
 936 761 l 1
 1096 761 l 1
 1168 715 1219 635 1268 550 c 2
 1413 302 l 1
 1610 302 l 1
 1572 366 1538 421 1506 472 c 0
 1435 586 1367 696 1277 781 c 1
 1448 803 1588 891 1588 1079 c 0
 1588 1176 1547 1251 1464 1303 c 0
 1381 1355 1254 1380 1082 1380 c 2
 762 1380 l 1
 762 302 l 1
1133 -57 m 0
 1425 -57 1643 59 1798 206 c 0
 1948 348 2076 550 2076 832 c 0
 2076 913 2064 991 2042 1066 c 0
 1994 1225 1907 1355 1798 1458 c 0
 1642 1605 1423 1723 1127 1723 c 0
 835 1723 618 1607 461 1460 c 1
 311 1318 181 1116 181 833 c 0
 181 752 193 674 215 599 c 0
 263 441 349 309 459 206 c 0
 616 59 837 -57 1133 -57 c 0
1133 81 m 0
 889 81 693 173 561 298 c 0
 433 418 330 599 330 835 c 0
 330 1068 433 1248 561 1369 c 0
 692 1492 885 1585 1128 1585 c 0
 1371 1585 1567 1491 1698 1367 c 0
 1825 1247 1927 1066 1927 832 c 0
 1927 591 1827 418 1699 298 c 0
 1568 174 1383 81 1133 81 c 0
933 900 m 1
 932 1239 l 1
 1078 1239 l 2
 1258 1239 1406 1238 1406 1061 c 0
 1406 902 1242 900 1080 900 c 2
 933 900 l 1
EndSplineSet
EndChar

StartChar: ring
Encoding: 730 730 253
Width: 1065
VWidth: 0
GlyphClass: 2
Flags: W
LayerCount: 2
Fore
SplineSet
403 2124 m 0
 327 2124 274 2172 274 2248 c 0
 274 2319 332 2371 403 2371 c 0
 476 2371 534 2320 534 2248 c 0
 534 2177 474 2124 403 2124 c 0
406 2024 m 0
 507 2024 651 2094 651 2248 c 0
 651 2356 563 2471 405 2471 c 0
 299 2471 158 2403 158 2246 c 0
 158 2138 245 2024 406 2024 c 0
EndSplineSet
EndChar

StartChar: s
Encoding: 115 115 254
Width: 856
VWidth: 0
GlyphClass: 2
Flags: HW
PickledData: "(dp1
S'com.typemytype.robofont.layerData'
p2
(dp3
s."
LayerCount: 2
UndoRedoHistory
Layer: 1
Undoes
EndUndoes
Redoes
EndRedoes
EndUndoRedoHistory
Fore
SplineSet
436 -22 m 0
 683 -22 800 107 800 304 c 0
 800 469 715 534 483 605 c 1
 339 648 291 679 291 737 c 0
 291 799 329 832 426 832 c 0
 511 832 620 805 712 759 c 1
 754 939 l 1
 683 979 535 1016 413 1016 c 0
 131 1016 60 846 60 718 c 0
 60 574 128 493 352 421 c 1
 528 363 579 352 579 275 c 0
 579 218 545 168 436 168 c 0
 347 168 231 201 123 254 c 1
 71 79 l 1
 142 26 298 -22 436 -22 c 0
EndSplineSet
EndChar

StartChar: s.alt
Encoding: 65543 -1 255
Width: 1763
VWidth: 0
GlyphClass: 2
Flags: W
LayerCount: 2
Fore
SplineSet
715 -46 m 0
 934 -46 1126 45 1126 318 c 0
 1126 562 900 627 712 685 c 0
 601 719 402 752 402 894 c 0
 402 1020 515 1061 646 1061 c 0
 778 1061 927 1018 991 976 c 1
 1046 1119 l 1
 931 1189 785 1225 647 1225 c 0
 412 1225 200 1120 200 890 c 0
 200 654 399 586 593 528 c 0
 719 491 934 459 934 304 c 0
 934 160 823 116 688 116 c 0
 531 116 344 184 256 251 c 1
 200 90 l 1
 325 13 532 -46 715 -46 c 0
EndSplineSet
EndChar

StartChar: section
Encoding: 167 167 259
Width: 1932
VWidth: 0
GlyphClass: 2
Flags: W
LayerCount: 2
Fore
SplineSet
674 -84 m 0
 807 -84 925 -49 1007 7 c 1
 1084 61 1152 143 1152 267 c 0
 1152 415 1060 485 960 536 c 1
 1058 595 1178 684 1178 837 c 0
 1178 878 1168 916 1149 949 c 0
 1062 1096 856 1148 703 1231 c 0
 635 1269 570 1311 570 1406 c 0
 570 1532 695 1564 822 1564 c 0
 921 1564 1017 1536 1088 1503 c 1
 1085 1677 l 1
 997 1704 925 1725 817 1725 c 0
 581 1725 368 1635 368 1401 c 0
 368 1251 448 1177 548 1117 c 1
 445 1065 326 980 326 828 c 0
 326 790 333 755 346 723 c 0
 391 614 493 552 603 505 c 2
 702 463 l 2
 741 447 776 431 807 417 c 0
 874 385 948 350 948 257 c 0
 948 231 943 208 930 186 c 0
 888 112 788 77 669 77 c 0
 547 77 452 108 355 151 c 1
 358 -23 l 1
 447 -59 554 -84 674 -84 c 0
802 614 m 1
 762 630 726 646 693 661 c 0
 618 695 533 739 533 842 c 0
 533 948 619 1005 690 1043 c 1
 785 991 969 965 969 821 c 0
 969 797 965 777 955 756 c 1
 922 694 860 651 802 614 c 1
EndSplineSet
EndChar

StartChar: semicolon
Encoding: 59 59 260
Width: 441
VWidth: 0
GlyphClass: 2
Flags: HW
LayerCount: 2
UndoRedoHistory
Layer: 1
Undoes
EndUndoes
Redoes
EndRedoes
EndUndoRedoHistory
Fore
SplineSet
46 -451 m 1
 200 -451 l 1
 391 93 l 1
 171 93 l 1
 46 -451 l 1
116 837 m 1
 371 837 l 1
 371 1084 l 1
 171 1084 l 1
 116 837 l 1
EndSplineSet
EndChar

StartChar: seven
Encoding: 55 55 261
Width: 1164
VWidth: 0
GlyphClass: 2
Flags: HW
LayerCount: 2
UndoRedoHistory
Layer: 1
Undoes
EndUndoes
Redoes
EndRedoes
EndUndoRedoHistory
Fore
SplineSet
267 0 m 1
 539 0 l 1
 1065 1232 l 1
 1065 1413 l 1
 100 1413 l 1
 100 1214 l 1
 800 1214 l 1
 267 0 l 1
EndSplineSet
EndChar

StartChar: six
Encoding: 54 54 262
Width: 1206
VWidth: 0
GlyphClass: 2
Flags: HW
LayerCount: 2
UndoRedoHistory
Layer: 1
Undoes
EndUndoes
Redoes
EndRedoes
EndUndoRedoHistory
Fore
SplineSet
607 -35 m 0
 862 -35 1114 127 1114 455 c 0
 1114 722 908 933 629 933 c 0
 572 933 546 929 534 924 c 1
 854 1458 l 1
 647 1571 l 1
 271 940 l 2
 188 802 92 585 92 459 c 0
 92 130 351 -35 607 -35 c 0
596 168 m 0
 454 168 312 260 312 442 c 0
 312 640 452 736 592 736 c 0
 735 736 878 636 878 440 c 0
 878 259 737 168 596 168 c 0
522 904 m 2
 523 905 523 905 523 906 c 2
 522 904 l 2
EndSplineSet
EndChar

StartChar: slash
Encoding: 47 47 263
Width: 888
VWidth: 0
GlyphClass: 2
Flags: HW
LayerCount: 2
UndoRedoHistory
Layer: 1
Undoes
EndUndoes
Redoes
EndRedoes
EndUndoRedoHistory
Fore
SplineSet
43 -378 m 1
 206 -378 l 1
 843 1280 l 1
 676 1280 l 1
 43 -378 l 1
EndSplineSet
EndChar

StartChar: sterling
Encoding: 163 163 265
Width: 2094
VWidth: 0
GlyphClass: 2
Flags: W
LayerCount: 2
Fore
SplineSet
202 0 m 1
 1336 0 l 1
 1336 166 l 1
 501 166 l 1
 520 181 537 200 550 228 c 0
 614 359 616 558 616 752 c 2
 616 810 l 1
 1004 810 l 1
 1004 977 l 1
 614 977 l 1
 611 1112 l 1
 611 1357 687 1535 931 1535 c 0
 1062 1535 1170 1503 1252 1453 c 1
 1314 1594 l 1
 1223 1665 1096 1700 927 1700 c 0
 512 1700 412 1421 412 1010 c 0
 412 999 413 988 415 977 c 1
 200 977 l 1
 200 810 l 1
 415 810 l 1
 415 517 l 2
 415 319 322 234 200 163 c 1
 202 0 l 1
EndSplineSet
EndChar

StartChar: summation
Encoding: 8721 8721 266
Width: 2226
VWidth: 0
GlyphClass: 2
Flags: W
LayerCount: 2
Fore
SplineSet
101 -580 m 1
 1466 -580 l 1
 1466 -406 l 1
 378 -406 l 1
 1088 465 l 1
 415 1311 l 1
 1413 1311 l 1
 1413 1477 l 1
 126 1477 l 1
 126 1367 l 1
 851 455 l 1
 101 -474 l 1
 101 -580 l 1
EndSplineSet
EndChar

StartChar: t
Encoding: 116 116 267
Width: 874
VWidth: 0
GlyphClass: 2
Flags: HW
PickledData: "(dp1
S'com.typemytype.robofont.layerData'
p2
(dp3
s."
LayerCount: 2
UndoRedoHistory
Layer: 1
Undoes
EndUndoes
Redoes
EndRedoes
EndUndoRedoHistory
Fore
SplineSet
582 -16 m 0
 659 -16 742 -1 829 23 c 1
 804 213 l 1
 758 198 682 186 636 186 c 0
 540 186 484 236 484 348 c 2
 484 820 l 1
 761 820 l 1
 761 996 l 1
 484 996 l 1
 484 1338 l 1
 238 1309 l 1
 238 996 l 1
 51 996 l 1
 51 820 l 1
 238 820 l 1
 238 296 l 2
 238 78 384 -16 582 -16 c 0
EndSplineSet
EndChar

StartChar: thorn
Encoding: 254 254 268
Width: 2181
VWidth: 0
GlyphClass: 2
Flags: W
LayerCount: 2
Fore
SplineSet
279 -752 m 1
 472 -752 l 1
 472 -92 l 1
 573 -216 708 -278 877 -278 c 0
 970 -278 1050 -259 1119 -224 c 0
 1311 -126 1430 83 1430 368 c 0
 1430 451 1418 529 1396 605 c 0
 1331 825 1163 983 877 983 c 0
 688 983 562 902 475 785 c 1
 475 1458 l 1
 279 1458 l 1
 279 -752 l 1
849 -123 m 0
 788 -123 733 -111 687 -89 c 0
 549 -22 472 126 472 329 c 0
 472 609 576 826 856 826 c 0
 1121 826 1224 624 1224 361 c 0
 1224 97 1115 -123 849 -123 c 0
EndSplineSet
EndChar

StartChar: three
Encoding: 51 51 269
Width: 1058
VWidth: 0
GlyphClass: 2
Flags: HW
PickledData: "(dp1
S'com.typemytype.robofont.layerData'
p2
(dp3
s."
LayerCount: 2
UndoRedoHistory
Layer: 1
Undoes
EndUndoes
Redoes
EndRedoes
EndUndoRedoHistory
Fore
SplineSet
517 -25 m 0
 766 -25 1006 111 1006 386 c 0
 1006 637 839 732 760 758 c 1
 834 794 968 881 968 1077 c 0
 968 1345 751 1474 514 1474 c 0
 342 1474 159 1406 44 1272 c 1
 181 1119 l 1
 256 1210 376 1256 486 1256 c 0
 614 1256 736 1194 736 1047 c 0
 736 859 539 843 407 843 c 2
 344 843 l 1
 346 635 l 1
 423 637 l 1
 619 637 780 608 780 389 c 0
 780 280 674 191 526 191 c 0
 417 191 285 239 153 359 c 1
 60 179 l 1
 159 44 339 -25 517 -25 c 0
EndSplineSet
EndChar

StartChar: threequarters
Encoding: 190 190 270
Width: 4324
VWidth: 0
GlyphClass: 2
Flags: W
LayerCount: 2
Fore
SplineSet
-593 0 m 1
 -416 0 l 1
 541 1522 l 1
 579 1461 l 1
 636 1507 708 1552 804 1552 c 0
 899 1552 969 1516 969 1421 c 0
 969 1303 857 1279 738 1279 c 2
 680 1279 l 1
 680 1140 l 1
 711 1140 l 1
 746 1140 l 2
 878 1140 998 1114 998 983 c 0
 998 875 904 823 794 823 c 0
 717 823 646 854 580 914 c 1
 510 802 l 1
 577 735 673 688 799 688 c 0
 846 688 892 695 934 708 c 0
 1049 744 1150 832 1150 980 c 0
 1150 1100 1087 1173 1000 1212 c 1
 1072 1251 1126 1320 1126 1424 c 0
 1126 1468 1116 1506 1098 1539 c 0
 1049 1630 946 1692 806 1692 c 0
 739 1692 675 1675 621 1649 c 1
 644 1686 l 1
 469 1686 l 1
 -593 0 l 1
2049 722 m 1
 2190 722 l 1
 2190 943 l 1
 2332 943 l 1
 2321 1069 l 1
 2193 1069 l 1
 2193 1658 l 1
 2036 1658 l 1
 1606 1050 l 1
 1606 943 l 1
 2049 943 l 1
 2049 722 l 1
1769 1069 m 1
 2049 1461 l 1
 2049 1069 l 1
 1769 1069 l 1
EndSplineSet
EndChar

StartChar: tilde
Encoding: 732 732 271
Width: 1167
VWidth: 0
GlyphClass: 2
Flags: W
LayerCount: 2
Fore
SplineSet
25 2119 m 1
 148 2119 l 1
 157 2185 191 2219 255 2219 c 0
 367 2219 439 2139 552 2139 c 0
 697 2139 766 2259 781 2392 c 1
 654 2392 l 1
 646 2332 614 2286 552 2286 c 0
 530 2286 505 2290 482 2299 c 0
 414 2323 347 2366 258 2366 c 0
 113 2366 36 2255 25 2119 c 1
EndSplineSet
EndChar

StartChar: trademark
Encoding: 8482 8482 272
Width: 3292
VWidth: 0
GlyphClass: 2
Flags: W
LayerCount: 2
Fore
SplineSet
1003 1208 m 1
 1145 1208 l 1
 1145 1906 l 1
 1449 1208 l 1
 1543 1208 l 1
 1864 1907 l 1
 1864 1208 l 1
 2007 1208 l 1
 2007 2107 l 1
 1797 2107 l 1
 1503 1459 l 1
 1226 2107 l 1
 1003 2107 l 1
 1003 1208 l 1
421 1208 m 1
 566 1208 l 1
 566 1988 l 1
 871 1988 l 1
 871 2107 l 1
 123 2107 l 1
 123 1988 l 1
 421 1988 l 1
 421 1208 l 1
EndSplineSet
EndChar

StartChar: two
Encoding: 50 50 273
Width: 1138
VWidth: 0
GlyphClass: 2
Flags: HW
PickledData: "(dp1
S'com.typemytype.robofont.layerData'
p2
(dp3
s."
LayerCount: 2
UndoRedoHistory
Layer: 1
Undoes
EndUndoes
Redoes
EndRedoes
EndUndoRedoHistory
Fore
SplineSet
94 -6 m 1
 1025 -6 l 1
 1025 209 l 1
 448 209 l 1
 514 270 670 387 810 534 c 1
 949 682 1072 861 1072 1045 c 0
 1072 1343 825 1474 571 1474 c 0
 355 1474 136 1381 58 1203 c 1
 224 1066 l 1
 298 1192 435 1254 556 1254 c 0
 682 1254 789 1188 789 1042 c 0
 789 891 670 727 523 577 c 0
 376 427 202 291 93 192 c 1
 94 -6 l 1
EndSplineSet
EndChar

StartChar: u
Encoding: 117 117 274
Width: 1207
VWidth: 0
GlyphClass: 2
Flags: HW
PickledData: "(dp1
S'com.typemytype.robofont.layerData'
p2
(dp3
s."
LayerCount: 2
UndoRedoHistory
Layer: 1
Undoes
EndUndoes
Redoes
EndRedoes
EndUndoRedoHistory
Fore
SplineSet
465 -22 m 0
 609 -22 747 50 814 158 c 1
 837 62 964 -4 1126 -4 c 1
 1161 211 l 1
 1082 211 1030 270 1030 355 c 2
 1030 996 l 1
 782 996 l 1
 782 473 l 2
 782 291 665 170 490 170 c 0
 390 170 329 255 332 381 c 2
 337 577 l 1
 346 884 300 996 300 996 c 1
 51 969 l 1
 51 969 97 844 88 564 c 1
 84 354 l 1
 77 129 229 -22 465 -22 c 0
EndSplineSet
EndChar

StartChar: u.alt
Encoding: 65544 -1 275
Width: 2139
VWidth: 0
GlyphClass: 2
Flags: W
LayerCount: 2
Fore
SplineSet
692 -42 m 0
 878 -42 1019 31 1115 168 c 1
 1147 38 1261 -19 1375 -19 c 1
 1416 150 l 1
 1355 150 1270 186 1270 322 c 2
 1270 1190 l 1
 1077 1190 l 1
 1077 476 l 2
 1077 246 891 125 722 125 c 0
 580 125 452 201 452 431 c 2
 452 685 l 2
 452 1057 405 1190 405 1190 c 1
 212 1190 l 1
 212 1190 257 1009 257 669 c 2
 257 431 l 2
 257 96 465 -42 692 -42 c 0
EndSplineSet
EndChar

StartChar: underscore
Encoding: 95 95 280
Width: 1756
VWidth: 0
GlyphClass: 2
Flags: W
LayerCount: 2
Fore
SplineSet
-9 -481 m 1
 989 -481 l 1
 989 -353 l 1
 -9 -353 l 1
 -9 -481 l 1
EndSplineSet
EndChar

StartChar: uni00B2
Encoding: 178 178 283
Width: 2095
VWidth: 0
GlyphClass: 2
Flags: W
LayerCount: 2
Fore
SplineSet
499 1064 m 1
 1140 1064 l 1
 1140 1202 l 1
 712 1202 l 1
 820 1296 930 1386 1017 1491 c 0
 1080 1568 1141 1655 1141 1778 c 0
 1141 1819 1132 1855 1117 1889 c 1
 1071 1984 971 2045 832 2045 c 0
 670 2045 558 1964 508 1846 c 1
 608 1754 l 1
 647 1837 713 1908 825 1908 c 0
 918 1908 990 1865 990 1777 c 0
 990 1744 978 1708 953 1668 c 0
 928 1628 895 1584 852 1536 c 0
 747 1421 624 1308 499 1194 c 1
 499 1064 l 1
EndSplineSet
EndChar

StartChar: uni00B3
Encoding: 179 179 284
Width: 2095
VWidth: 0
GlyphClass: 2
Flags: W
LayerCount: 2
Fore
SplineSet
703 1032 m 0
 750 1032 796 1039 838 1052 c 0
 953 1088 1054 1176 1054 1324 c 0
 1054 1444 991 1517 903 1556 c 1
 976 1595 1029 1664 1029 1768 c 0
 1029 1812 1020 1850 1002 1883 c 0
 953 1974 850 2036 710 2036 c 0
 588 2036 478 1981 414 1917 c 1
 482 1805 l 1
 540 1851 611 1896 707 1896 c 0
 802 1896 873 1860 873 1765 c 0
 873 1647 761 1623 642 1623 c 2
 584 1623 l 1
 584 1484 l 1
 614 1484 l 1
 650 1484 l 2
 782 1484 902 1458 902 1327 c 0
 902 1219 807 1167 697 1167 c 0
 621 1167 550 1198 484 1258 c 1
 414 1146 l 1
 481 1079 577 1032 703 1032 c 0
EndSplineSet
EndChar

StartChar: uni00B9
Encoding: 185 185 285
Width: 2095
VWidth: 0
GlyphClass: 2
Flags: W
LayerCount: 2
Fore
SplineSet
458 1064 m 1
 886 1064 l 1
 886 1201 l 1
 743 1201 l 1
 743 2030 l 1
 619 2012 l 1
 558 1976 500 1945 422 1920 c 1
 421 1767 l 1
 480 1789 547 1819 599 1847 c 1
 599 1726 l 2
 599 1665 600 1608 600 1538 c 2
 600 1204 l 1
 458 1204 l 1
 458 1064 l 1
EndSplineSet
EndChar

StartChar: uni0216
Encoding: 534 534 308
Width: 2698
VWidth: 0
GlyphClass: 2
Flags: W
LayerCount: 2
Fore
SplineSet
1023 -39 m 0
 1448 -39 1678 212 1680 634 c 1
 1680 1697 l 1
 1480 1697 l 1
 1480 620 l 2
 1480 315 1317 132 1021 132 c 0
 702 132 538 293 538 628 c 2
 538 1697 l 1
 336 1697 l 1
 336 623 l 2
 336 172 572 -39 1023 -39 c 0
676 1922 m 1
 777 1922 l 1
 795 2025 881 2073 1001 2073 c 0
 1121 2073 1214 2021 1237 1922 c 1
 1338 1922 l 1
 1323 2103 1204 2199 1010 2199 c 0
 809 2199 691 2110 676 1922 c 1
EndSplineSet
EndChar

StartChar: uni0217
Encoding: 535 535 309
Width: 2115
VWidth: 0
GlyphClass: 2
Flags: W
LayerCount: 2
Fore
SplineSet
687 -39 m 0
 873 -39 1019 35 1109 180 c 1
 1141 50 1268 -17 1382 -17 c 1
 1422 150 l 1
 1361 150 1265 186 1265 323 c 2
 1265 1192 l 1
 1072 1192 l 1
 1072 488 l 2
 1072 258 910 124 716 124 c 0
 575 124 433 186 439 416 c 2
 445 686 l 1
 456 1057 400 1192 400 1192 c 1
 206 1161 l 1
 206 1161 262 1010 252 671 c 2
 245 416 l 2
 236 81 460 -39 687 -39 c 0
443 1417 m 1
 545 1417 l 1
 563 1520 649 1569 769 1569 c 0
 889 1569 981 1515 1004 1417 c 1
 1105 1417 l 1
 1090 1598 972 1694 777 1694 c 0
 577 1694 458 1604 443 1417 c 1
EndSplineSet
EndChar

StartChar: uni0237
Encoding: 567 567 312
Width: 885
VWidth: 0
GlyphClass: 2
Flags: W
LayerCount: 2
Fore
SplineSet
-35 -756 m 0
 19 -756 65 -747 105 -730 c 0
 287 -650 339 -428 339 -166 c 2
 339 953 l 1
 145 953 l 1
 145 -216 l 2
 145 -423 102 -585 -81 -585 c 0
 -116 -585 -145 -578 -180 -573 c 1
 -179 -740 l 1
 -134 -750 -87 -756 -35 -756 c 0
EndSplineSet
EndChar

StartChar: uni0307
Encoding: 775 775 313
Width: 922
VWidth: 0
GlyphClass: 2
Flags: W
LayerCount: 2
Fore
SplineSet
324 2195 m 1
 513 2195 l 1
 513 2386 l 1
 324 2386 l 1
 324 2195 l 1
EndSplineSet
EndChar

StartChar: uni0311
Encoding: 785 785 314
Width: 1107
VWidth: 0
GlyphClass: 2
Flags: W
LayerCount: 2
Fore
SplineSet
57 2145 m 1
 159 2145 l 1
 176 2249 262 2297 382 2297 c 0
 502 2297 594 2244 617 2145 c 1
 719 2145 l 1
 704 2326 585 2423 390 2423 c 0
 190 2423 72 2333 57 2145 c 1
EndSplineSet
EndChar

StartChar: uni03A9
Encoding: 937 937 315
Width: 2823
VWidth: 0
GlyphClass: 2
Flags: W
LayerCount: 2
Fore
SplineSet
176 0 m 1
 812 0 l 1
 808 142 l 1
 747 182 693 229 642 282 c 0
 509 424 398 624 398 891 c 0
 398 986 413 1073 442 1153 c 0
 523 1371 706 1537 998 1537 c 0
 1096 1537 1182 1519 1255 1484 c 0
 1456 1387 1585 1179 1585 885 c 0
 1585 807 1574 730 1552 658 c 1
 1488 431 1345 260 1169 142 c 1
 1174 0 l 1
 1785 0 l 1
 1796 163 l 1
 1410 161 l 1
 1512 242 1608 347 1676 467 c 1
 1741 585 1793 729 1793 906 c 0
 1793 1150 1706 1342 1581 1472 c 0
 1453 1606 1259 1702 1004 1702 c 0
 754 1702 555 1613 421 1487 c 0
 285 1359 188 1167 188 911 c 0
 188 830 198 752 217 679 c 0
 273 452 401 282 565 161 c 1
 163 163 l 1
 176 0 l 1
EndSplineSet
EndChar

StartChar: uni03BC
Encoding: 956 956 316
Width: 2143
VWidth: 0
GlyphClass: 2
Flags: W
LayerCount: 2
Fore
SplineSet
277 -356 m 1
 470 -356 l 1
 470 -83 l 1
 537 -123 620 -145 727 -145 c 0
 901 -145 1033 -83 1123 40 c 1
 1127 -119 l 1
 1326 -119 l 1
 1318 -20 1317 64 1317 170 c 2
 1317 1086 l 1
 1123 1086 l 1
 1123 393 l 2
 1123 341 1115 292 1100 245 c 0
 1055 111 948 9 771 9 c 0
 557 9 470 132 470 350 c 2
 470 1086 l 1
 277 1086 l 1
 277 -356 l 1
EndSplineSet
EndChar

StartChar: uni2074
Encoding: 8308 8308 317
Width: 1579
VWidth: 0
GlyphClass: 2
Flags: W
LayerCount: 2
Fore
SplineSet
405 1084 m 1
 546 1084 l 1
 546 1305 l 1
 688 1305 l 1
 676 1430 l 1
 549 1430 l 1
 549 2019 l 1
 391 2019 l 1
 -39 1411 l 1
 -39 1305 l 1
 405 1305 l 1
 405 1084 l 1
125 1430 m 1
 405 1822 l 1
 405 1430 l 1
 125 1430 l 1
EndSplineSet
EndChar

StartChar: uniF6C3
Encoding: 65545 -1 318
Width: 1055
VWidth: 0
GlyphClass: 2
Flags: W
LayerCount: 2
Fore
SplineSet
194 -1062 m 1
 347 -1062 l 1
 538 -519 l 1
 319 -519 l 1
 194 -1062 l 1
EndSplineSet
EndChar

StartChar: uniFB01
Encoding: 64257 64257 319
Width: 2122
VWidth: 0
GlyphClass: 2
Flags: W
LayerCount: 2
Fore
SplineSet
316 0 m 1
 509 0 l 1
 509 1079 l 1
 1047 1079 l 1
 1047 0 l 1
 1241 0 l 1
 1241 1205 l 1
 509 1205 l 1
 510 1365 l 2
 510 1523 541 1619 699 1619 c 0
 742 1619 798 1613 828 1601 c 1
 826 1754 l 1
 774 1765 730 1778 666 1778 c 0
 404 1778 320 1594 317 1336 c 1
 316 1205 l 1
 79 1205 l 1
 79 1079 l 1
 316 1079 l 1
 316 0 l 1
1056 1535 m 1
 1236 1535 l 1
 1236 1717 l 1
 1056 1717 l 1
 1056 1535 l 1
EndSplineSet
EndChar

StartChar: uniFB02
Encoding: 64258 64258 320
Width: 2438
VWidth: 0
GlyphClass: 2
Flags: W
LayerCount: 2
Fore
SplineSet
137 -791 m 1
 417 -754 519 -570 519 -277 c 2
 519 815 l 1
 811 815 l 1
 811 941 l 1
 519 941 l 1
 519 1137 l 2
 519 1315 578 1391 716 1391 c 0
 758 1391 802 1381 845 1371 c 1
 875 1496 l 1
 799 1522 729 1535 665 1535 c 0
 428 1535 327 1407 327 1110 c 2
 327 941 l 1
 89 941 l 1
 89 815 l 1
 327 815 l 1
 327 -304 l 2
 327 -491 253 -615 112 -649 c 1
 137 -791 l 1
1406 -277 m 0
 1470 -277 1566 -264 1661 -235 c 1
 1631 -84 l 1
 1574 -102 1503 -118 1448 -118 c 0
 1332 -118 1240 -54 1240 79 c 2
 1240 1528 l 1
 1048 1493 l 1
 1048 89 l 2
 1048 -116 1163 -277 1406 -277 c 0
EndSplineSet
EndChar

StartChar: v
Encoding: 118 118 321
Width: 1201
VWidth: 0
GlyphClass: 2
Flags: HW
LayerCount: 2
UndoRedoHistory
Layer: 1
Undoes
EndUndoes
Redoes
EndRedoes
EndUndoRedoHistory
Fore
SplineSet
508 0 m 1
 710 0 l 1
 1129 996 l 1
 880 996 l 1
 661 484 l 2
 649 456 637 424 606 325 c 1
 591 377 571 438 550 484 c 2
 326 996 l 1
 72 996 l 1
 508 0 l 1
EndSplineSet
EndChar

StartChar: w
Encoding: 119 119 322
Width: 1782
VWidth: 0
GlyphClass: 2
Flags: HW
LayerCount: 2
UndoRedoHistory
Layer: 1
Undoes
EndUndoes
Redoes
EndRedoes
EndUndoRedoHistory
Fore
SplineSet
469 0 m 1
 672 0 l 1
 894 582 l 1
 1126 0 l 1
 1329 0 l 1
 1709 996 l 1
 1461 996 l 1
 1280 484 l 1
 1268 456 1255 424 1226 325 c 1
 1210 377 1185 438 1169 484 c 1
 1015 895 l 2
 965.692382812 1028.13085938 813.498046875 1040.01660156 762 890 c 2
 623 484 l 1
 611 456 598 424 568 325 c 1
 553 377 528 438 512 484 c 2
 327 996 l 1
 73 996 l 1
 469 0 l 1
EndSplineSet
EndChar

StartChar: x
Encoding: 120 120 323
Width: 1236
VWidth: 0
GlyphClass: 2
Flags: HW
LayerCount: 2
UndoRedoHistory
Layer: 1
Undoes
EndUndoes
Redoes
EndRedoes
EndUndoRedoHistory
Fore
SplineSet
63 0 m 1
 329 0 l 1
 603 345 l 1
 866 0 l 1
 1169 0 l 1
 780 504 l 1
 1152 996 l 1
 873 996 l 1
 643 681 l 1
 400 996 l 1
 108 996 l 1
 471 519 l 1
 63 0 l 1
EndSplineSet
EndChar

StartChar: y
Encoding: 121 121 324
Width: 1153
VWidth: 0
GlyphClass: 2
Flags: HW
PickledData: "(dp1
S'com.typemytype.robofont.layerData'
p2
(dp3
s."
LayerCount: 2
UndoRedoHistory
Layer: 1
Undoes
EndUndoes
Redoes
EndRedoes
EndUndoRedoHistory
Fore
SplineSet
507 -542 m 0
 800 -542 1057 -401 1058 -6 c 2
 1059 355 l 1
 1058 355 l 1
 1058 996 l 1
 810 996 l 1
 810 473 l 1
 813 291 693 170 518 170 c 0
 420 170 356 255 360 381 c 1
 364 577 l 1
 374 884 328 996 328 996 c 1
 80 969 l 1
 80 969 127 844 117 564 c 1
 112 355 l 2
 106 130 257 -22 493 -22 c 0
 618 -22 741 33 816 119 c 1
 813 -44 l 1
 813 -283 649 -325 463 -325 c 0
 368 -325 267 -303 180 -259 c 1
 134 -459 l 1
 250 -513 381 -542 507 -542 c 0
EndSplineSet
EndChar

StartChar: yen
Encoding: 165 165 327
Width: 2094
VWidth: 0
GlyphClass: 2
Flags: W
LayerCount: 2
Fore
SplineSet
611 0 m 1
 814 0 l 1
 814 333 l 1
 1273 333 l 1
 1273 496 l 1
 810 496 l 1
 810 674 l 1
 1269 674 l 1
 1269 840 l 1
 842 840 l 1
 1376 1668 l 1
 1158 1668 l 1
 1013 1424 869 1177 721 935 c 1
 580 1183 430 1424 286 1668 c 1
 46 1668 l 1
 568 840 l 1
 136 840 l 1
 136 674 l 1
 609 674 l 1
 609 496 l 1
 131 496 l 1
 143 333 l 1
 611 333 l 1
 611 0 l 1
EndSplineSet
EndChar

StartChar: z
Encoding: 122 122 328
Width: 1011
VWidth: 0
GlyphClass: 2
Flags: HW
LayerCount: 2
UndoRedoHistory
Layer: 1
Undoes
EndUndoes
Redoes
EndRedoes
EndUndoRedoHistory
Fore
SplineSet
97 0 m 1
 912 0 l 1
 912 185 l 1
 394 185 l 1
 896 843 l 1
 896 996 l 1
 123 996 l 1
 123 825 l 1
 605 825 l 1
 97 155 l 1
 97 0 l 1
EndSplineSet
EndChar

StartChar: zero
Encoding: 48 48 332
Width: 1335
VWidth: 0
GlyphClass: 2
Flags: HW
PickledData: "(dp1
S'com.typemytype.robofont.layerData'
p2
(dp3
s."
LayerCount: 2
UndoRedoHistory
Layer: 1
Undoes
EndUndoes
Redoes
EndRedoes
EndUndoRedoHistory
Fore
SplineSet
666 224 m 0
 486 224 367 429 367 735 c 0
 367 1047 486 1255 666 1255 c 0
 844 1255 961 1047 961 735 c 0
 961 429 844 224 666 224 c 0
666 6 m 0
 1011 6 1242 297 1242 735 c 0
 1242 1179 1011 1474 666 1474 c 0
 324 1474 94 1179 94 735 c 0
 94 297 324 6 666 6 c 0
EndSplineSet
EndChar
